<svg width="266" height="218" viewBox="0 0 266 218" fill="none" xmlns="http://www.w3.org/2000/svg">
<g clip-path="url(#clip0_362_3630)">
<mask id="mask0_362_3630" style="mask-type:luminance" maskUnits="userSpaceOnUse" x="0" y="0" width="266" height="218">
<path d="M265.5 0H0.5V218H265.5V0Z" fill="white"/>
</mask>
<g mask="url(#mask0_362_3630)">
<path d="M18.7155 109.543C15.8576 109.535 13.103 108.469 10.9783 106.549C8.85355 104.63 7.50775 101.991 7.1981 99.138L0.565412 37.2713C0.239523 34.1996 1.14017 31.1235 3.06976 28.718C4.99936 26.3124 7.80031 24.7738 10.8581 24.4397L207.798 3.1429C210.857 2.81546 213.92 3.71991 216.315 5.65778C218.711 7.59566 220.243 10.4087 220.575 13.4797L227.208 75.346C227.534 78.4177 226.633 81.4942 224.704 83.8998C222.774 86.3055 219.973 87.8441 216.915 88.1783L19.9749 109.475C19.5566 109.521 19.1362 109.543 18.7155 109.543Z" fill="#E6E6E6"/>
<path d="M30.0331 96.6196C27.2797 96.6119 24.6259 95.6446 22.5789 93.9027C20.5319 92.1608 19.2354 89.766 18.937 87.1765L12.547 31.0319C12.233 28.2442 13.1007 25.4526 14.9597 23.2695C16.8187 21.0863 19.5172 19.69 22.4631 19.3868L212.198 0.0596658C215.145 -0.237482 218.096 0.58331 220.404 2.34196C222.711 4.10064 224.187 6.6535 224.508 9.44049L230.898 65.585C231.212 68.3729 230.344 71.1645 228.485 73.3477C226.626 75.531 223.928 76.9272 220.982 77.2305L31.2465 96.5575C30.8434 96.5987 30.4385 96.6196 30.0331 96.6196Z" fill="white"/>
<path d="M201.841 29.3162L95.5695 40.911C95.2654 40.9446 94.9581 40.9172 94.6646 40.8301C94.3714 40.7434 94.0976 40.5986 93.8596 40.4044C93.6214 40.2103 93.4233 39.9705 93.2767 39.6987C93.1301 39.4268 93.0379 39.1285 93.005 38.8205C92.9724 38.5128 93 38.2012 93.0861 37.9041C93.1721 37.6069 93.3152 37.3298 93.5074 37.0888C93.6992 36.8476 93.936 36.6473 94.2045 36.4993C94.4728 36.351 94.7674 36.2577 95.0715 36.2251L201.343 24.6303C201.646 24.5968 201.954 24.6242 202.247 24.7111C202.541 24.7981 202.814 24.9427 203.053 25.1369C203.291 25.331 203.489 25.5708 203.635 25.8426C203.782 26.1144 203.874 26.4128 203.907 26.7207C203.939 27.0286 203.912 27.3401 203.826 27.6373C203.74 27.9344 203.597 28.2115 203.405 28.4525C203.213 28.6936 202.976 28.894 202.708 29.0422C202.439 29.1904 202.144 29.2835 201.841 29.3162Z" fill="#44BEFF"/>
<path d="M203.386 43.6008L97.403 54.7585C96.7914 54.823 96.1788 54.647 95.6996 54.2699C95.2208 53.8924 94.9146 53.3446 94.8488 52.7465C94.783 52.1487 94.9628 51.5497 95.3486 51.0814C95.7346 50.613 96.2949 50.3135 96.9065 50.2491L202.889 39.0917C203.501 39.0272 204.113 39.2029 204.592 39.5803C205.071 39.9575 205.378 40.5056 205.443 41.1034C205.509 41.7015 205.329 42.3005 204.944 42.7688C204.558 43.2372 203.997 43.5364 203.386 43.6008Z" fill="#44BEFF"/>
<path d="M205.507 56.4638L193 57.835C192.381 57.9027 191.76 57.7174 191.275 57.3196C190.79 56.9216 190.48 56.3441 190.413 55.7133C190.347 55.0828 190.529 54.4512 190.92 53.9572C191.31 53.4633 191.878 53.1476 192.497 53.0799L205.004 51.7087C205.311 51.6746 205.622 51.7025 205.918 51.7908C206.214 51.8787 206.49 52.0255 206.731 52.2227C206.972 52.4198 207.172 52.6631 207.32 52.9387C207.468 53.2147 207.561 53.5174 207.594 53.8299C207.627 54.1423 207.599 54.4586 207.512 54.7601C207.425 55.0617 207.281 55.3426 207.087 55.5874C206.893 55.8319 206.654 56.0352 206.383 56.1855C206.112 56.3361 205.814 56.4306 205.507 56.4638Z" fill="#44BEFF"/>
<path d="M24.7752 34.1555C26.9814 34.1555 28.7698 32.3644 28.7698 30.1553C28.7698 27.946 26.9814 26.155 24.7752 26.155C22.569 26.155 20.7805 27.946 20.7805 30.1553C20.7805 32.3644 22.569 34.1555 24.7752 34.1555Z" fill="#3F3D56"/>
<path d="M212.678 14.4621C214.969 14.4621 216.826 12.6023 216.826 10.3081C216.826 8.01388 214.969 6.15405 212.678 6.15405C210.387 6.15405 208.529 8.01388 208.529 10.3081C208.529 12.6023 210.387 14.4621 212.678 14.4621Z" fill="#3F3D56"/>
<path d="M59.1907 88.0038C78.1979 88.0038 93.6064 73.0562 93.6064 54.6177C93.6064 36.1792 78.1979 21.2317 59.1907 21.2317C40.1836 21.2317 24.7752 36.1792 24.7752 54.6177C24.7752 73.0562 40.1836 88.0038 59.1907 88.0038Z" fill="#44BEFF"/>
<path d="M55.9872 68.6182C55.2219 68.6197 54.4769 68.3546 53.8646 67.8633L53.8267 67.8327L45.8323 61.2865C45.4622 60.9826 45.1513 60.6037 44.9181 60.1715C44.6845 59.7391 44.5329 59.2616 44.4718 58.7667C44.4107 58.2716 44.4412 57.7682 44.562 57.286C44.6824 56.8036 44.8907 56.3511 45.1745 55.9548C45.4583 55.5585 45.8124 55.2261 46.2163 54.976C46.6203 54.7262 47.0663 54.5638 47.5287 54.4985C47.9911 54.4332 48.4612 54.4659 48.9119 54.595C49.3625 54.7239 49.785 54.9469 50.1555 55.2505L55.3336 59.501L67.5694 42.4132C67.8532 42.0172 68.2072 41.6848 68.6109 41.435C69.0145 41.1852 69.4605 41.0228 69.9227 40.9575C70.3851 40.8922 70.8549 40.9249 71.3055 41.054C71.7559 41.1829 72.1784 41.4056 72.5483 41.7095L72.5494 41.7101L72.4734 41.823L72.5515 41.7101C73.298 42.3244 73.7866 43.2308 73.9097 44.2302C74.0328 45.2295 73.7807 46.2404 73.2084 47.0409L58.8162 67.1308C58.483 67.5938 58.0549 67.9683 57.5649 68.2255C57.0749 68.4826 56.536 68.6156 55.9902 68.6138L55.9872 68.6182Z" fill="white"/>
<path d="M240.104 64.0828C240.326 62.4014 239.962 60.6922 239.082 59.278C238.202 57.864 236.867 56.8438 235.33 56.4104C233.793 55.9774 232.16 56.1612 230.742 56.9273C229.323 57.6937 228.216 58.9891 227.632 60.568L213.928 77.3431L217.95 89.3349L231.731 69.7334C232.631 70.0412 233.582 70.1344 234.519 70.0067C235.456 69.8793 236.355 69.534 237.153 68.9953C237.951 68.4566 238.629 67.7373 239.139 66.8885C239.649 66.0398 239.978 65.0822 240.104 64.0828Z" fill="#FDD0B9"/>
<path d="M183.299 129.356L228.789 77.5172L222.653 67.1008L165.597 118.625L183.299 129.356Z" fill="#3F3D56"/>
<path d="M184.822 101.525C187.225 99.5275 189.803 90.9767 186.502 76.9655C185.198 71.3784 180.262 66.3235 175.426 65.4839C153.679 61.6629 152.492 82.6215 157.125 90.1482C157.328 90.4668 155.04 101.207 155.301 101.525H184.822Z" fill="#2F2E41"/>
<path d="M112.541 195.225C111.009 195.679 109.374 195.518 107.947 194.771C106.519 194.024 105.397 192.744 104.794 191.174C104.191 189.603 104.148 187.85 104.674 186.248C105.2 184.646 106.258 183.306 107.648 182.481L121.433 165.782L133.093 168.472L116.694 185.623C117.097 186.535 117.308 187.53 117.312 188.538C117.316 189.546 117.113 190.543 116.717 191.459C116.321 192.374 115.742 193.186 115.02 193.837C114.299 194.487 113.453 194.961 112.541 195.225Z" fill="#FDD0B9"/>
<path d="M157.894 135.44L123.536 181.491L113.063 176.357L153.447 109.223L157.894 135.44Z" fill="#3F3D56"/>
<path d="M187.883 175.592C187.883 175.592 168.008 105.106 161.621 104.154C155.233 103.201 144.942 122.239 144.942 122.239C131.599 140.417 117.84 199.3 117.84 199.3C117.84 199.3 140.777 200.833 157.543 210.358C174.31 219.883 194.097 209.875 194.097 209.875L187.883 175.592Z" fill="#3F3D56"/>
<path opacity="0.1" d="M187.883 175.591C187.883 175.591 168.008 105.106 161.621 104.154C155.233 103.201 147.556 122.432 147.556 122.432C140.907 151.776 117.84 199.3 117.84 199.3C117.84 199.3 140.777 200.833 157.543 210.358C174.31 219.883 194.097 209.875 194.097 209.875L187.883 175.591Z" fill="black"/>
<path d="M165.814 90.2537C165.814 90.2537 162.509 105.029 162.033 106.126C162.033 106.126 165.707 111.97 172.895 109.413C172.895 109.413 172.811 104.326 173.185 94.9767L165.814 90.2537Z" fill="#FDD0B9"/>
<path d="M170.376 85.544C173.507 85.7964 173.958 86.8119 173.567 91.7674L175.583 92.104C175.192 97.0594 168.623 101.14 166.008 100.851C163.95 100.476 164.081 94.5479 164.497 89.5809L165.001 91.4311C165.398 86.4571 167.252 85.273 170.376 85.544Z" fill="#FFC0A0"/>
<path d="M151.227 120.026C146.02 127.932 144.844 143.239 144.844 143.239L144.003 151.009L171.927 159.055L181.686 112.494L175.037 104.921C161.74 104.448 161.733 104.153 161.733 104.153C159.403 106.588 151.227 120.026 151.227 120.026Z" fill="#44BEFF"/>
<path d="M161.909 106.251L161.443 108L164.107 107.186L165.14 108.637L164.958 104.559L164.385 104.426L161.909 106.251Z" fill="#E8E8E8"/>
<path d="M163.489 100.346L164.385 104.426L161.443 108V104.215L163.489 100.346Z" fill="white"/>
<path d="M176.087 105.224L173.063 99.8413L164.385 104.425L164.765 109.821L176.087 105.224Z" fill="white"/>
<path d="M182.81 107.67C181.542 106.67 180.101 105.949 178.569 105.549C177.038 105.148 175.448 105.076 173.891 105.336C172.333 105.597 170.84 106.184 169.497 107.065C168.153 107.946 166.987 109.103 166.066 110.468C159.045 120.906 152.554 137.759 161.498 158.778C175.859 192.528 188.356 209.805 193.436 209.803C193.658 209.805 193.879 209.768 194.089 209.693C197.216 208.561 201.738 202.91 202.556 197.931C202.849 196.149 202.78 193.666 200.784 191.962C195.05 187.065 184.757 171.818 181.546 151.75C179.771 140.661 183.212 130.56 186.412 124.039C187.763 121.341 188.158 118.213 187.525 115.229C186.892 112.245 185.273 109.604 182.965 107.791L182.81 107.67Z" fill="#3F3D56"/>
<path d="M173.967 96.185C179.659 92.8624 181.751 85.2418 178.639 79.1639C175.528 73.0858 168.391 70.852 162.699 74.1747C157.007 77.497 154.915 85.1179 158.026 91.1957C161.138 97.2738 168.275 99.5074 173.967 96.185Z" fill="#FDD0B9"/>
<path d="M151.814 84.2316H168.775L168.949 81.6315L169.818 84.2316H172.43L172.775 79.0782L174.498 84.2316H179.552V83.9763C179.548 80.3885 178.211 76.9491 175.835 74.4119C173.46 71.8751 170.238 70.4482 166.878 70.4441H164.487C161.127 70.4482 157.906 71.8751 155.53 74.4119C153.154 76.9488 151.817 80.3885 151.814 83.9763V84.2316Z" fill="#2F2E41"/>
<path d="M176.989 93.5776L184.227 91.0699V72.3013H170.556L170.894 72.6623C175.604 77.6842 180.841 95.5016 176.989 93.5776Z" fill="#2F2E41"/>
<path d="M158.354 71.5377C158.354 71.5377 165.39 71.7898 167.7 72.8354C176.242 76.77 182.164 85.7733 182.798 86.8813L184.939 80.1489C184.939 80.1489 183.462 71.483 172.767 66.8918C169.816 65.6358 164.497 66.3684 164.497 66.3684L158.354 71.5377Z" fill="#F93838"/>
<path d="M184.609 81.2539C184.376 80.5425 184.098 79.7694 183.931 79.399C183.455 78.1187 181.415 73.6554 175.677 69.9385C174.587 69.2321 173.446 68.6052 172.179 68.0462C170.345 67.2319 166.688 66.845 165.013 66.9189L163.674 66.8906L162.938 67.5355L165.084 67.5637C166.731 67.4711 170.193 67.8444 171.942 68.6028C173.134 69.1509 174.292 69.7517 175.325 70.4207C180.89 74.0264 182.81 78.299 183.274 79.534C183.488 80.0842 183.975 81.2174 184.323 82.1906L184.609 81.2539Z" fill="#F7D239"/>
<path d="M183.483 84.8521L182.233 83.1125C180.09 80.2891 176.549 76.273 171.878 73.2469C170.696 72.4811 169.515 71.8392 168.326 71.274C167.224 70.7648 165.246 70.3444 162.479 70.0693L160.268 69.8127L159.496 70.5141L162.412 70.8051C165.055 71.0822 166.976 71.4653 168.021 71.9371C169.181 72.4838 170.332 73.1069 171.486 73.8541C176.07 76.824 179.543 80.7551 181.657 83.56L183.178 85.6961L183.483 84.8521Z" fill="#F7D239"/>
<path d="M164.61 68.9627L164.553 68.9542C164.334 68.9227 163.843 69.1975 163.688 69.2007C163.534 69.2042 163.607 69.2072 163.401 69.2072C163.196 69.2069 163.003 69.3484 162.953 69.4952C162.902 69.6423 162.9 69.6823 162.909 69.7976C162.918 69.9127 162.997 70.1557 163.288 70.1974L163.382 70.211C163.497 70.2275 163.681 70.1651 163.766 70.0165C163.81 69.9383 163.844 69.8568 163.827 69.7682C163.812 69.6926 163.775 69.6467 163.722 69.6061C163.669 69.5655 163.613 69.5464 163.537 69.5646C163.461 69.5832 163.399 69.7023 163.297 69.7029C163.264 69.7029 163.245 69.6888 163.221 69.6661C163.189 69.6346 163.195 69.5779 163.214 69.5367C163.251 69.4575 163.439 69.3855 163.595 69.3637C163.723 69.346 163.934 69.3796 163.934 69.3796C163.934 69.3796 163.883 69.4823 163.927 69.529C163.972 69.5761 164.03 69.6064 164.113 69.5891C164.196 69.5717 164.363 69.4046 164.323 69.3549C164.282 69.3049 164.276 69.3993 164.157 69.4117C164.038 69.4237 164.026 69.3487 164.068 69.3181C164.109 69.2872 164.171 69.2116 164.243 69.1963C164.315 69.181 164.403 69.1533 164.488 69.1987C164.543 69.2278 164.562 69.2681 164.576 69.3287C164.61 69.4723 164.433 69.4552 164.34 69.5152C164.291 69.5467 164.271 69.6117 164.298 69.6526C164.326 69.6932 164.388 69.7176 164.437 69.687C164.485 69.6564 164.626 69.5417 164.699 69.5226C164.771 69.5037 164.836 69.5117 164.907 69.5529C164.996 69.6041 165.017 69.6788 165.048 69.775C165.066 69.8321 165.066 69.8771 165.053 69.9412C165.026 70.0762 164.903 70.2133 164.769 70.1795C164.709 70.1642 164.67 70.1451 164.662 70.0833C164.649 69.9712 164.827 69.96 164.868 69.9035C164.909 69.8471 164.9 69.7906 164.879 69.7506C164.835 69.6711 164.77 69.6617 164.679 69.6594C164.588 69.6573 164.493 69.7129 164.42 69.802C164.317 69.9271 164.301 70.0715 164.345 70.1957C164.384 70.3048 164.391 70.3125 164.507 70.3987C164.623 70.4852 164.731 70.4972 164.864 70.4908C164.997 70.484 165.194 70.396 165.295 70.2257C165.376 70.0874 165.384 69.9594 165.326 69.8521C165.269 69.7444 164.758 68.9839 164.61 68.9627Z" fill="#F7D239"/>
<path d="M164.579 68.8492L164.52 68.846C164.294 68.8334 163.859 68.4603 163.705 68.4259C163.551 68.3915 163.625 68.4029 163.419 68.3621C163.214 68.3209 163.05 68.1408 163.029 67.984C163.008 67.8269 163.014 67.7863 163.046 67.673C163.078 67.5598 163.206 67.3329 163.505 67.3494L163.601 67.3547C163.719 67.3612 163.89 67.4606 163.946 67.6263C163.975 67.7133 163.992 67.8016 163.957 67.8866C163.927 67.9593 163.881 67.9975 163.82 68.0276C163.759 68.0576 163.699 68.0655 163.627 68.0317C163.555 67.9984 163.516 67.8666 163.414 67.8454C163.382 67.839 163.36 67.8493 163.332 67.8669C163.293 67.8919 163.288 67.9502 163.299 67.9952C163.32 68.0817 163.493 68.1914 163.645 68.2444C163.769 68.2879 163.986 68.2967 163.986 68.2967C163.986 68.2967 163.956 68.1835 164.01 68.1458C164.064 68.1079 164.128 68.0893 164.207 68.1232C164.287 68.1573 164.421 68.3576 164.37 68.3994C164.32 68.4412 164.332 68.3456 164.216 68.3094C164.099 68.2732 164.073 68.3459 164.108 68.385C164.143 68.4241 164.19 68.5121 164.259 68.5418C164.327 68.5715 164.41 68.6171 164.504 68.5889C164.565 68.5706 164.592 68.5342 164.618 68.4762C164.68 68.3397 164.501 68.3212 164.42 68.2426C164.377 68.2014 164.37 68.1323 164.405 68.097C164.441 68.062 164.508 68.0499 164.55 68.0902C164.593 68.1308 164.711 68.2735 164.779 68.307C164.848 68.3406 164.914 68.3459 164.994 68.3191C165.093 68.2853 165.129 68.215 165.179 68.1249C165.208 68.0717 165.217 68.027 165.217 67.9602C165.217 67.8198 165.121 67.658 164.982 67.6648C164.918 67.668 164.875 67.6792 164.855 67.7395C164.819 67.849 164.995 67.8958 165.024 67.9605C165.054 68.0252 165.035 68.0799 165.005 68.1155C164.945 68.1864 164.879 68.1826 164.787 68.1664C164.695 68.1502 164.612 68.0758 164.557 67.9719C164.479 67.8263 164.491 67.6786 164.561 67.5636C164.622 67.4624 164.63 67.4562 164.763 67.393C164.896 67.3297 165.007 67.3397 165.138 67.373C165.27 67.4062 165.45 67.5339 165.516 67.7242C165.569 67.8787 165.552 68.0081 165.473 68.104C165.393 68.1999 164.73 68.8575 164.579 68.8492Z" fill="#F7D239"/>
<path d="M168.313 69.4788L168.388 69.4962C168.674 69.5624 169.147 70.1358 169.336 70.214C169.524 70.2923 169.433 70.2611 169.686 70.3594C169.94 70.4576 170.11 70.7239 170.101 70.9292C170.094 71.1343 170.077 71.1849 170.011 71.3226C169.944 71.4599 169.731 71.7215 169.353 71.6335L169.231 71.6056C169.081 71.5709 168.885 71.4058 168.851 71.1819C168.833 71.0643 168.831 70.9475 168.894 70.8468C168.948 70.7606 169.016 70.7221 169.101 70.6974C169.185 70.6727 169.264 70.6759 169.348 70.735C169.433 70.7936 169.453 70.9707 169.578 71.0201C169.618 71.0357 169.649 71.0278 169.689 71.011C169.744 70.9878 169.763 70.9148 169.759 70.8548C169.751 70.7395 169.554 70.5606 169.373 70.4594C169.224 70.3761 168.947 70.3164 168.947 70.3164C168.947 70.3164 168.962 70.4679 168.885 70.5041C168.807 70.5406 168.721 70.55 168.627 70.4888C168.533 70.4276 168.407 70.1419 168.48 70.0999C168.554 70.0578 168.517 70.1773 168.658 70.2493C168.799 70.3214 168.848 70.2343 168.812 70.1767C168.776 70.119 168.736 69.996 168.655 69.9428C168.573 69.8895 168.478 69.813 168.351 69.828C168.269 69.8377 168.227 69.8786 168.181 69.9466C168.071 70.1072 168.297 70.1708 168.382 70.289C168.428 70.3514 168.421 70.4411 168.368 70.4782C168.315 70.5153 168.227 70.5159 168.182 70.4547C168.137 70.3938 168.018 70.1849 167.937 70.1266C167.857 70.0687 167.773 70.0472 167.666 70.064C167.532 70.0849 167.47 70.1667 167.387 70.2705C167.338 70.332 167.315 70.3873 167.301 70.4726C167.27 70.6518 167.356 70.8798 167.536 70.9022C167.618 70.9122 167.676 70.9074 167.715 70.8348C167.784 70.703 167.571 70.6041 167.547 70.515C167.523 70.4256 167.561 70.3602 167.607 70.3214C167.698 70.244 167.783 70.2634 167.896 70.3046C168.01 70.3458 168.099 70.4594 168.147 70.6044C168.214 70.8077 168.166 70.9936 168.051 71.1252C167.951 71.2408 167.939 71.247 167.755 71.2981C167.571 71.349 167.432 71.312 167.271 71.2402C167.11 71.1684 166.909 70.9654 166.867 70.7077C166.833 70.4982 166.884 70.3364 167.007 70.2317C167.129 70.1269 168.122 69.4347 168.313 69.4788Z" fill="#F7D239"/>
<path d="M168.35 69.3199L168.425 69.3373C168.71 69.4032 169.387 69.0964 169.591 69.1093C169.795 69.1219 169.7 69.1096 169.97 69.1328C170.24 69.1561 170.51 68.9916 170.593 68.8036C170.676 68.6156 170.683 68.563 170.684 68.4103C170.685 68.2576 170.608 67.929 170.229 67.8413L170.108 67.8131C169.958 67.7783 169.709 67.8401 169.581 68.0264C169.513 68.1243 169.459 68.2282 169.472 68.3464C169.483 68.4476 169.527 68.5124 169.592 68.5718C169.658 68.6312 169.729 68.6627 169.831 68.6468C169.933 68.6312 170.029 68.4812 170.163 68.4918C170.205 68.4953 170.229 68.5159 170.258 68.5486C170.297 68.5936 170.283 68.6677 170.253 68.7198C170.195 68.8201 169.94 68.8939 169.732 68.9051C169.562 68.9142 169.287 68.8463 169.287 68.8463C169.287 68.8463 169.367 68.7168 169.313 68.6501C169.259 68.5836 169.187 68.5371 169.075 68.5506C168.964 68.5641 168.725 68.7654 168.773 68.8357C168.821 68.906 168.839 68.7819 168.998 68.7792C169.156 68.7763 169.162 68.8766 169.105 68.9125C169.047 68.9484 168.957 69.041 168.86 69.0531C168.764 69.0655 168.645 69.0919 168.537 69.0228C168.468 68.9781 168.448 68.9228 168.437 68.8416C168.408 68.6489 168.639 68.6909 168.768 68.6224C168.836 68.5862 168.869 68.5027 168.838 68.4462C168.807 68.3897 168.727 68.3503 168.66 68.3853C168.593 68.4203 168.394 68.5556 168.297 68.5724C168.199 68.5892 168.115 68.5718 168.026 68.5094C167.914 68.4318 167.894 68.3311 167.865 68.2011C167.848 68.124 167.852 68.0649 167.877 67.9816C167.927 67.8069 168.105 67.6404 168.277 67.6995C168.354 67.7263 168.405 67.7563 168.407 67.8384C168.412 67.9875 168.177 67.9822 168.116 68.0522C168.056 68.122 168.061 68.197 168.085 68.252C168.133 68.3617 168.218 68.3815 168.338 68.3944C168.458 68.4073 168.588 68.345 168.695 68.2355C168.844 68.0823 168.882 67.894 168.837 67.726C168.798 67.5777 168.79 67.5668 168.647 67.44C168.504 67.3132 168.363 67.2853 168.187 67.2791C168.011 67.2729 167.741 67.3668 167.59 67.5798C167.468 67.7528 167.442 67.9204 167.507 68.0687C167.571 68.2167 168.159 69.2755 168.35 69.3199Z" fill="#F7D239"/>
<path d="M170.56 69.2681L170.918 69.6564L171.4 69.5784L172.27 70.5187L171.006 70.7279L170.646 70.3381L170.166 70.4175L169.293 69.4728L170.56 69.2681ZM171.115 70.4428L171.765 70.3548L171.306 69.8862L171.15 69.9068L171.429 70.2086L170.961 70.286L171.115 70.4428ZM170.748 70.0683L170.924 70.0445L170.831 69.9488L170.654 69.9721L170.748 70.0683ZM170.274 70.1321L170.435 70.1106L170.133 69.7832L170.595 69.7085L170.465 69.5758L169.813 69.6617L170.274 70.1321Z" fill="#F7D239"/>
<path d="M161.57 68.6648L161.911 68.8854L162.05 68.8383L161.726 68.6009L162.107 68.4603L161.99 68.3841L161.572 68.6627L162.121 68.1829L162.377 68.3603L162.811 68.2002L163.742 68.8819L162.66 69.2852L162.275 69.0031L161.864 69.1561L161.385 68.8266L161.57 68.6648ZM162.708 69.0143L163.268 68.8242L162.781 68.4894L162.635 68.5382L162.945 68.7527L162.545 68.9022L162.708 69.0143ZM162.319 68.7471L162.471 68.6954L162.367 68.6283L162.219 68.678L162.319 68.7471Z" fill="#F7D239"/>
<path d="M166.081 68.5761L166.133 68.05L166.447 68.4475L166.396 68.9641L166.081 68.5761Z" fill="#F7D239"/>
<path d="M166.809 68.6515L166.861 68.1255L166.475 68.4532L166.424 68.9695L166.809 68.6515Z" fill="#F7D239"/>
<path d="M166.008 69.3468L165.956 69.8729L166.342 69.5451L166.393 69.0288L166.008 69.3468Z" fill="#F7D239"/>
<path d="M166.728 69.4166L166.676 69.9423L166.362 69.5449L166.414 69.0286L166.728 69.4166Z" fill="#F7D239"/>
<path d="M165.972 69.3246L165.447 69.272L165.844 68.9578L166.36 69.0092L165.972 69.3246Z" fill="#F7D239"/>
<path d="M166.063 68.5988L165.537 68.5464L165.865 68.933L166.38 68.9844L166.063 68.5988Z" fill="#F7D239"/>
<path d="M166.769 69.4062L167.294 69.4586L166.967 69.072L166.451 69.0205L166.769 69.4062Z" fill="#F7D239"/>
<path d="M166.843 68.6733L167.368 68.7257L166.971 69.0399L166.456 68.9884L166.843 68.6733Z" fill="#F7D239"/>
<path d="M166.302 67.6113C166.306 67.5701 166.343 67.5401 166.384 67.5442L166.411 67.5468C166.417 67.5474 166.423 67.5474 166.428 67.5468C166.446 67.5204 166.471 67.5001 166.5 67.488C166.503 67.4821 166.504 67.4762 166.505 67.4698L166.506 67.4577C166.51 67.4171 166.546 67.3874 166.587 67.3915C166.627 67.3953 166.657 67.4318 166.653 67.4724L166.652 67.4845C166.651 67.4906 166.651 67.4965 166.652 67.5021C166.679 67.5201 166.7 67.5454 166.713 67.5754C166.718 67.5771 166.723 67.578 166.729 67.5786L166.754 67.581C166.795 67.5851 166.825 67.6219 166.821 67.663C166.817 67.7042 166.78 67.7345 166.739 67.7304L166.715 67.7278C166.71 67.7275 166.705 67.7278 166.7 67.7281C166.681 67.7563 166.654 67.7784 166.623 67.7907C166.622 67.7957 166.621 67.8004 166.62 67.8054L166.619 67.8181C166.615 67.859 166.578 67.8887 166.538 67.8846C166.497 67.8804 166.468 67.8443 166.471 67.8034L166.473 67.7907C166.473 67.7854 166.473 67.7801 166.473 67.7748C166.445 67.7566 166.423 67.7301 166.411 67.6992C166.406 67.6978 166.401 67.6966 166.395 67.696L166.369 67.6933C166.328 67.6892 166.298 67.6524 166.302 67.6113ZM166.501 67.628C166.498 67.661 166.522 67.6907 166.555 67.6939C166.588 67.6972 166.617 67.673 166.621 67.6398C166.624 67.6068 166.6 67.5771 166.567 67.5739C166.534 67.5707 166.504 67.5948 166.501 67.628Z" fill="#F7D239"/>
<path d="M166.031 70.3364C166.035 70.2955 166.072 70.2652 166.112 70.2693L166.139 70.2719C166.145 70.2725 166.151 70.2725 166.157 70.2719C166.175 70.2457 166.2 70.2254 166.229 70.2131C166.231 70.2072 166.233 70.2013 166.233 70.1951L166.234 70.1831C166.238 70.1425 166.275 70.1125 166.315 70.1166C166.356 70.1207 166.386 70.1572 166.382 70.1978L166.381 70.2098C166.38 70.2157 166.38 70.2219 166.381 70.2278C166.408 70.2454 166.429 70.2707 166.441 70.3008C166.447 70.3022 166.452 70.3031 166.457 70.3037L166.483 70.3063C166.524 70.3105 166.554 70.3472 166.55 70.3884C166.546 70.4296 166.509 70.4596 166.468 70.4555L166.443 70.4531C166.438 70.4526 166.433 70.4529 166.428 70.4531C166.409 70.4817 166.383 70.5032 166.352 70.5158C166.35 70.5205 166.349 70.5255 166.349 70.5308L166.347 70.5435C166.343 70.5841 166.307 70.6138 166.266 70.6097C166.226 70.6058 166.196 70.5694 166.2 70.5288L166.201 70.5161C166.202 70.5108 166.201 70.5055 166.201 70.5002C166.173 70.4817 166.152 70.4555 166.14 70.4246C166.134 70.4228 166.129 70.4217 166.124 70.4211L166.098 70.4184C166.057 70.4143 166.027 70.3775 166.031 70.3364ZM166.23 70.3531C166.226 70.3864 166.25 70.4158 166.284 70.4193C166.317 70.4226 166.346 70.3981 166.349 70.3652C166.353 70.3319 166.329 70.3022 166.295 70.299C166.262 70.2955 166.233 70.3202 166.23 70.3531Z" fill="#F7D239"/>
<path d="M170.188 70.6867C170.198 70.6464 170.239 70.6223 170.279 70.6323L170.305 70.6387C170.311 70.6402 170.317 70.6411 170.323 70.6414C170.344 70.6181 170.372 70.602 170.403 70.594C170.406 70.5887 170.408 70.5828 170.409 70.5767L170.412 70.5649C170.422 70.5252 170.463 70.501 170.502 70.5111C170.542 70.5211 170.566 70.5614 170.556 70.6011L170.553 70.6128C170.552 70.6184 170.55 70.6243 170.55 70.6299C170.575 70.6517 170.592 70.6799 170.6 70.712C170.605 70.714 170.61 70.7158 170.615 70.717L170.64 70.7235C170.68 70.7335 170.704 70.7744 170.694 70.8144C170.684 70.8544 170.644 70.8788 170.603 70.8688L170.579 70.8626C170.574 70.8614 170.569 70.8611 170.565 70.8608C170.542 70.8861 170.512 70.9041 170.479 70.9117C170.477 70.9162 170.475 70.9209 170.474 70.9256L170.471 70.9379C170.461 70.9776 170.421 71.0018 170.381 70.9918C170.342 70.9818 170.318 70.9415 170.328 70.9017L170.331 70.8894C170.332 70.8841 170.332 70.8788 170.333 70.8738C170.308 70.8514 170.291 70.8223 170.284 70.7899C170.279 70.7876 170.273 70.7855 170.268 70.7841L170.243 70.7776C170.203 70.7676 170.178 70.7267 170.188 70.6867ZM170.383 70.7329C170.375 70.7649 170.394 70.7979 170.426 70.8061C170.459 70.8141 170.492 70.7944 170.5 70.7623C170.508 70.7299 170.488 70.697 170.456 70.6887C170.424 70.6805 170.391 70.7005 170.383 70.7329Z" fill="#F7D239"/>
<path d="M170.92 68.9701C170.938 68.9328 170.983 68.9172 171.02 68.9351L171.044 68.9469C171.05 68.9495 171.055 68.9516 171.06 68.9531C171.086 68.9342 171.117 68.9239 171.149 68.9225C171.152 68.9178 171.156 68.9128 171.159 68.9069L171.164 68.896C171.182 68.8592 171.226 68.8439 171.263 68.8616C171.3 68.8795 171.315 68.9237 171.297 68.9607L171.292 68.9713C171.29 68.9769 171.288 68.9825 171.286 68.9881C171.305 69.0143 171.317 69.0452 171.318 69.0778C171.322 69.081 171.327 69.0837 171.332 69.0861L171.355 69.0972C171.392 69.1152 171.408 69.1602 171.39 69.1976C171.372 69.2346 171.327 69.2502 171.29 69.2323L171.268 69.2217C171.263 69.2193 171.258 69.2179 171.253 69.2164C171.226 69.2367 171.193 69.2482 171.16 69.249C171.157 69.2532 171.154 69.2573 171.152 69.262L171.146 69.2735C171.129 69.3102 171.084 69.3258 171.047 69.3079C171.011 69.2902 170.995 69.2458 171.013 69.209L171.019 69.1976C171.021 69.1925 171.022 69.1875 171.024 69.1825C171.004 69.1558 170.993 69.1237 170.993 69.0905C170.988 69.0872 170.983 69.0843 170.978 69.0816L170.955 69.0702C170.918 69.0522 170.902 69.0075 170.92 68.9701ZM171.101 69.0543C171.087 69.084 171.099 69.1202 171.129 69.1346C171.159 69.149 171.195 69.1367 171.209 69.1066C171.224 69.0766 171.211 69.0405 171.181 69.026C171.151 69.0116 171.115 69.0243 171.101 69.0543Z" fill="#F7D239"/>
<path d="M173.006 71.4394L172.936 71.3941C172.669 71.2209 171.863 71.2841 171.659 71.1959C171.456 71.1073 171.549 71.155 171.281 71.0314C171.013 70.9075 170.676 70.9761 170.522 71.1373C170.368 71.2988 170.341 71.35 170.284 71.5059C170.227 71.6619 170.184 72.0261 170.539 72.2561L170.653 72.33C170.793 72.4209 171.071 72.4497 171.271 72.307C171.376 72.2317 171.469 72.1458 171.5 72.0196C171.526 71.9122 171.505 71.8299 171.46 71.7448C171.415 71.6601 171.354 71.6016 171.243 71.5798C171.134 71.5583 170.98 71.676 170.847 71.6157C170.805 71.5963 170.788 71.5662 170.771 71.5224C170.747 71.4615 170.79 71.3912 170.839 71.3491C170.935 71.2679 171.223 71.2868 171.44 71.3524C171.618 71.4059 171.873 71.5768 171.873 71.5768C171.873 71.5768 171.744 71.6801 171.774 71.7681C171.805 71.856 171.862 71.9308 171.981 71.9581C172.1 71.9855 172.418 71.8681 172.395 71.7784C172.372 71.6889 172.308 71.8087 172.145 71.7528C171.982 71.6972 172.012 71.5924 172.084 71.5768C172.157 71.5612 172.283 71.5004 172.386 71.5236C172.489 71.5465 172.621 71.5639 172.705 71.6742C172.759 71.7454 172.759 71.8093 172.741 71.8969C172.699 72.104 172.479 71.9758 172.322 71.9981C172.239 72.0099 172.174 72.0829 172.185 72.1523C172.196 72.2217 172.263 72.2914 172.345 72.2806C172.426 72.2697 172.679 72.2049 172.785 72.2238C172.891 72.2426 172.971 72.2917 173.039 72.3882C173.124 72.5089 173.108 72.6195 173.089 72.763C173.078 72.8481 173.052 72.9072 172.997 72.9834C172.88 73.1431 172.637 73.2479 172.483 73.1237C172.414 73.0675 172.374 73.0184 172.401 72.9334C172.451 72.7792 172.69 72.8713 172.777 72.8225C172.865 72.7733 172.888 72.6948 172.883 72.6298C172.874 72.4994 172.796 72.4483 172.677 72.3906C172.559 72.3326 172.403 72.3485 172.254 72.4209C172.045 72.5224 171.936 72.7007 171.92 72.8893C171.906 73.0555 171.909 73.0693 172.009 73.252C172.108 73.4347 172.243 73.5153 172.42 73.5868C172.598 73.6583 172.908 73.6621 173.141 73.5C173.331 73.3685 173.418 73.2064 173.407 73.0311C173.396 72.856 173.186 71.556 173.006 71.4394Z" fill="#F7D239"/>
<path d="M173.102 71.2903L173.032 71.245C172.765 71.0717 172.493 70.3103 172.328 70.1603C172.164 70.0103 172.246 70.0762 172.023 69.882C171.801 69.6878 171.725 69.3524 171.809 69.1456C171.893 68.9388 171.929 68.8932 172.047 68.777C172.166 68.6611 172.48 68.4725 172.835 68.7026L172.949 68.7761C173.089 68.867 173.229 69.1085 173.181 69.3498C173.156 69.4769 173.116 69.5975 173.014 69.6769C172.926 69.7446 172.843 69.759 172.747 69.7531C172.651 69.747 172.573 69.7149 172.508 69.6231C172.443 69.5316 172.487 69.343 172.378 69.2465C172.343 69.2153 172.308 69.2124 172.262 69.2147C172.196 69.218 172.15 69.2856 172.132 69.3483C172.097 69.4692 172.233 69.7249 172.381 69.8958C172.503 70.0359 172.763 70.1991 172.763 70.1991C172.763 70.1991 172.804 70.0391 172.897 70.0306C172.989 70.022 173.081 70.0441 173.155 70.1415C173.228 70.2391 173.252 70.5781 173.161 70.5936C173.07 70.6095 173.152 70.501 173.035 70.3751C172.917 70.2491 172.834 70.32 172.85 70.3921C172.865 70.4645 172.861 70.6051 172.925 70.6899C172.988 70.7743 173.058 70.8878 173.193 70.9193C173.28 70.9396 173.338 70.9137 173.41 70.8614C173.582 70.7375 173.375 70.5892 173.331 70.4363C173.308 70.3559 173.347 70.2665 173.415 70.2483C173.483 70.2297 173.574 70.2624 173.597 70.3412C173.621 70.4204 173.666 70.6781 173.726 70.7672C173.787 70.8561 173.864 70.909 173.98 70.9317C174.125 70.9599 174.219 70.8993 174.342 70.8237C174.415 70.779 174.458 70.7307 174.505 70.649C174.603 70.4771 174.598 70.2121 174.422 70.1226C174.343 70.082 174.282 70.0656 174.215 70.1256C174.095 70.2344 174.277 70.4145 174.268 70.5148C174.26 70.6148 174.197 70.6678 174.136 70.6904C174.014 70.7355 173.935 70.6846 173.834 70.6004C173.733 70.5163 173.683 70.3671 173.688 70.2009C173.695 69.9685 173.813 69.7964 173.978 69.704C174.123 69.6228 174.137 69.6207 174.345 69.6366C174.552 69.6528 174.68 69.7422 174.818 69.8752C174.956 70.0082 175.087 70.29 175.035 70.5692C174.993 70.7961 174.881 70.9426 174.717 71.0041C174.552 71.0658 173.282 71.4065 173.102 71.2903Z" fill="#F7D239"/>
<path d="M176.555 73.7564L176.618 73.8114C176.858 74.0218 177.016 74.8149 177.157 74.9873C177.297 75.1594 177.226 75.0826 177.418 75.3071C177.61 75.5316 177.636 75.8743 177.523 76.0667C177.41 76.2591 177.368 76.2989 177.234 76.3965C177.099 76.4942 176.761 76.6348 176.443 76.3556L176.341 76.2659C176.216 76.1556 176.112 75.8964 176.195 75.6646C176.238 75.5425 176.296 75.4292 176.409 75.3654C176.505 75.3112 176.59 75.3092 176.684 75.3292C176.777 75.3489 176.85 75.3921 176.901 75.4925C176.952 75.5922 176.88 75.7725 176.975 75.884C177.005 75.9199 177.038 75.9279 177.085 75.9323C177.15 75.9388 177.206 75.8784 177.233 75.819C177.285 75.7046 177.188 75.4319 177.066 75.2412C176.966 75.0847 176.732 74.8852 176.732 74.8852C176.732 74.8852 176.668 75.0376 176.575 75.0326C176.483 75.0273 176.395 74.9923 176.337 74.8852C176.278 74.7779 176.304 74.4392 176.396 74.4369C176.489 74.4345 176.391 74.5298 176.489 74.6717C176.587 74.8132 176.679 74.7555 176.675 74.6817C176.67 74.6078 176.694 74.4692 176.644 74.3763C176.593 74.2833 176.541 74.1609 176.412 74.11C176.329 74.0774 176.267 74.0947 176.188 74.1359C176.001 74.2333 176.184 74.4101 176.205 74.5678C176.216 74.6508 176.164 74.7334 176.094 74.7417C176.025 74.7499 175.939 74.7046 175.928 74.6231C175.916 74.5413 175.909 74.2798 175.862 74.183C175.815 74.0859 175.746 74.0224 175.635 73.9829C175.496 73.9338 175.394 73.9803 175.261 74.0371C175.182 74.0706 175.133 74.1121 175.075 74.1862C174.953 74.3419 174.918 74.6046 175.08 74.719C175.153 74.7708 175.211 74.7961 175.285 74.7464C175.42 74.6561 175.266 74.4513 175.289 74.3536C175.312 74.2559 175.381 74.2124 175.445 74.1989C175.573 74.1721 175.644 74.2342 175.731 74.3321C175.819 74.4301 175.847 74.5852 175.817 74.7487C175.777 74.9776 175.635 75.1309 175.458 75.198C175.303 75.2571 175.289 75.2571 175.086 75.2109C174.883 75.165 174.769 75.0576 174.652 74.9061C174.535 74.7546 174.447 74.4563 174.539 74.1877C174.614 73.9697 174.745 73.8411 174.917 73.8041C175.088 73.767 176.394 73.6149 176.555 73.7564Z" fill="#F7D239"/>
<path d="M176.415 73.4132L176.48 73.4653C176.729 73.6636 177.537 73.6792 177.732 73.7871C177.926 73.8954 177.837 73.8386 178.092 73.9878C178.347 74.1372 178.688 74.1019 178.857 73.9563C179.026 73.8107 179.058 73.7621 179.13 73.6127C179.202 73.4632 179.28 73.1046 178.95 72.8413L178.843 72.7566C178.712 72.6527 178.439 72.5965 178.226 72.7192C178.114 72.7839 178.013 72.8604 177.97 72.9828C177.934 73.0872 177.947 73.1714 177.983 73.2602C178.019 73.3491 178.075 73.4132 178.183 73.4456C178.29 73.4779 178.454 73.3756 178.58 73.4485C178.621 73.4721 178.635 73.5038 178.648 73.5488C178.665 73.6118 178.616 73.6777 178.562 73.7148C178.459 73.786 178.174 73.7392 177.965 73.6527C177.794 73.5821 177.556 73.387 177.556 73.387C177.556 73.387 177.694 73.297 177.673 73.2064C177.651 73.1158 177.601 73.0361 177.485 72.9972C177.37 72.9584 177.041 73.0443 177.056 73.1355C177.07 73.227 177.146 73.114 177.303 73.1855C177.459 73.2567 177.419 73.3582 177.345 73.3664C177.272 73.375 177.14 73.4235 177.04 73.3903C176.94 73.357 176.81 73.327 176.737 73.209C176.69 73.1331 176.696 73.0693 176.723 72.984C176.785 72.7816 176.991 72.9307 177.15 72.924C177.234 72.9201 177.306 72.854 177.301 72.7839C177.297 72.7139 177.237 72.6377 177.155 72.6407C177.073 72.6436 176.815 72.6833 176.711 72.6542C176.607 72.6251 176.533 72.5686 176.474 72.4656C176.401 72.3373 176.429 72.2291 176.461 72.0879C176.48 72.0043 176.512 71.9481 176.575 71.8778C176.706 71.7301 176.958 71.6495 177.099 71.7881C177.163 71.8507 177.198 71.9037 177.162 71.9855C177.098 72.134 176.869 72.019 176.777 72.0593C176.685 72.0993 176.655 72.1755 176.653 72.2408C176.649 72.3712 176.723 72.43 176.835 72.4989C176.947 72.568 177.103 72.5674 177.259 72.51C177.477 72.4294 177.602 72.2623 177.637 72.0764C177.667 71.9122 177.665 71.8984 177.584 71.7069C177.502 71.5154 177.377 71.4218 177.207 71.3332C177.037 71.245 176.729 71.2109 176.481 71.3491C176.28 71.4615 176.177 71.6145 176.171 71.7901C176.165 71.9655 176.248 73.2799 176.415 73.4132Z" fill="#F7D239"/>
<path d="M178.684 74.7856L178.826 75.3222L179.322 75.4905L179.679 76.8367L178.359 76.3939L178.216 75.855L177.721 75.689L177.363 74.3369L178.684 74.7856ZM178.609 76.1756L179.278 76.4225L179.075 75.7385L178.922 75.6814L179.042 76.1318L178.547 75.9659L178.609 76.1756ZM178.452 75.6482L178.64 75.7173L178.592 75.5584L178.405 75.4887L178.452 75.6482ZM177.97 75.4705L178.13 75.5293L178 75.0418L178.488 75.2074L178.437 75.033L177.766 74.7835L177.97 75.4705Z" fill="#F7D239"/>
<path d="M183.602 81.565L183.709 81.9671L184.081 82.0934L184.159 82.9406L183.413 82.858L183.271 82.3725L182.881 82.2419L182.612 81.229L183.602 81.565ZM183.547 82.6067L184.048 82.7918L183.896 82.279L183.781 82.236L183.87 82.5735L183.5 82.4496L183.547 82.6067ZM183.429 82.2113L183.569 82.2631L183.534 82.1445L183.394 82.0919L183.429 82.2113ZM183.068 82.0783L183.199 82.1263L183.091 81.7571L183.456 81.8812L183.417 81.7506L182.915 81.5635L183.068 82.0783Z" fill="#F7D239"/>
<path d="M174.556 71.7891L174.896 71.2639L175.011 71.8523L174.678 72.3677L174.556 71.7891Z" fill="#F7D239"/>
<path d="M175.281 72.2622L175.62 71.7373L175.037 71.8729L174.704 72.3884L175.281 72.2622Z" fill="#F7D239"/>
<path d="M174.063 72.5607L173.724 73.0859L174.307 72.9502L174.64 72.4348L174.063 72.5607Z" fill="#F7D239"/>
<path d="M174.784 73.0245L174.445 73.5496L174.33 72.9612L174.663 72.4458L174.784 73.0245Z" fill="#F7D239"/>
<path d="M174.038 72.5179L173.514 72.1781L174.101 72.0625L174.616 72.3961L174.038 72.5179Z" fill="#F7D239"/>
<path d="M174.524 71.8032L174 71.4634L174.136 72.0474L174.65 72.3807L174.524 71.8032Z" fill="#F7D239"/>
<path d="M174.832 73.0351L175.356 73.3746L175.22 72.7909L174.706 72.4573L174.832 73.0351Z" fill="#F7D239"/>
<path d="M175.306 72.304L175.83 72.6435L175.243 72.7591L174.728 72.4255L175.306 72.304Z" fill="#F7D239"/>
<path d="M175.31 70.8938C175.336 70.8527 175.391 70.8406 175.432 70.8674L175.459 70.8847C175.465 70.8886 175.471 70.8918 175.478 70.8941C175.511 70.8762 175.548 70.8685 175.586 70.8715C175.591 70.8665 175.596 70.8609 175.599 70.8544L175.607 70.8427C175.634 70.8021 175.688 70.7906 175.728 70.8168C175.769 70.843 175.78 70.8974 175.754 70.938L175.747 70.9497C175.743 70.9556 175.739 70.9615 175.737 70.9677C175.756 71.0015 175.765 71.0401 175.762 71.0789C175.766 71.083 175.771 71.0868 175.777 71.0904L175.802 71.1068C175.843 71.1333 175.855 71.1883 175.828 71.2295C175.802 71.2704 175.747 71.2822 175.706 71.2557L175.681 71.2398C175.676 71.2366 175.671 71.2342 175.666 71.2319C175.63 71.2519 175.59 71.2604 175.55 71.2563C175.546 71.2607 175.543 71.2651 175.54 71.2701L175.531 71.2828C175.505 71.3234 175.451 71.3351 175.41 71.309C175.37 71.2825 175.358 71.2284 175.384 71.1878L175.393 71.1748C175.396 71.1695 175.399 71.1639 175.401 71.158C175.382 71.1236 175.374 71.0845 175.378 71.0454C175.373 71.0409 175.368 71.0368 175.362 71.033L175.336 71.0159C175.295 70.9895 175.283 70.9347 175.31 70.8938ZM175.51 71.0189C175.489 71.0518 175.498 71.0963 175.532 71.1177C175.565 71.1392 175.609 71.1298 175.63 71.0965C175.652 71.0636 175.643 71.0189 175.609 70.9974C175.576 70.9759 175.532 70.9856 175.51 71.0189Z" fill="#F7D239"/>
<path d="M173.552 73.614C173.579 73.5728 173.634 73.561 173.675 73.5875L173.702 73.6049C173.708 73.6087 173.714 73.6119 173.72 73.6146C173.753 73.5966 173.791 73.589 173.828 73.5919C173.833 73.5869 173.838 73.5813 173.842 73.5749L173.85 73.5631C173.876 73.5225 173.93 73.5107 173.971 73.5369C174.011 73.5634 174.023 73.6175 173.997 73.6581L173.989 73.6702C173.985 73.6761 173.982 73.6822 173.98 73.6887C173.999 73.7222 174.007 73.7605 174.004 73.799C174.009 73.8034 174.014 73.8073 174.019 73.8108L174.044 73.827C174.086 73.8537 174.097 73.9088 174.071 73.95C174.044 73.9908 173.989 74.0023 173.948 73.9758L173.924 73.9602C173.919 73.9567 173.914 73.9541 173.908 73.952C173.873 73.972 173.833 73.9808 173.793 73.977C173.789 73.9811 173.785 73.9855 173.782 73.9903L173.774 74.0032C173.748 74.0438 173.693 74.0553 173.653 74.0291C173.612 74.0029 173.601 73.9485 173.627 73.9079L173.635 73.8952C173.639 73.8899 173.641 73.8843 173.643 73.8788C173.624 73.844 173.616 73.8049 173.62 73.7655C173.615 73.7611 173.611 73.757 173.605 73.7534L173.578 73.7364C173.538 73.7099 173.526 73.6549 173.552 73.614ZM173.753 73.7393C173.731 73.7725 173.741 73.8167 173.774 73.8382C173.807 73.8596 173.851 73.8502 173.873 73.8173C173.894 73.784 173.885 73.7393 173.852 73.7178C173.819 73.6964 173.774 73.7061 173.753 73.7393Z" fill="#F7D239"/>
<path d="M177.564 76.29C177.598 76.2541 177.654 76.2518 177.69 76.2847L177.713 76.3068C177.718 76.3115 177.724 76.3159 177.73 76.3194C177.765 76.3074 177.803 76.3062 177.839 76.3156C177.846 76.3115 177.851 76.3065 177.857 76.3009L177.866 76.2906C177.899 76.255 177.954 76.2529 177.99 76.2856C178.025 76.3186 178.027 76.3739 177.995 76.4095L177.985 76.4198C177.98 76.425 177.976 76.4306 177.972 76.4365C177.986 76.473 177.988 76.5121 177.978 76.5498C177.982 76.5548 177.986 76.5592 177.991 76.5636L178.013 76.5842C178.049 76.6172 178.051 76.6737 178.018 76.7095C177.985 76.7454 177.929 76.7475 177.893 76.7142L177.871 76.6945C177.867 76.6904 177.862 76.6872 177.858 76.6839C177.819 76.6978 177.778 76.6992 177.739 76.6884C177.735 76.6919 177.731 76.6957 177.727 76.7001L177.716 76.7113C177.683 76.7469 177.628 76.749 177.593 76.7163C177.557 76.6834 177.555 76.628 177.588 76.5924L177.598 76.5813C177.602 76.5766 177.606 76.5713 177.609 76.5663C177.596 76.5289 177.595 76.4889 177.605 76.4509C177.601 76.4459 177.597 76.4409 177.592 76.4362L177.569 76.415C177.534 76.3818 177.531 76.3259 177.564 76.29ZM177.741 76.4474C177.714 76.4765 177.715 76.5218 177.744 76.5489C177.773 76.5757 177.819 76.5736 177.846 76.5445C177.872 76.5154 177.87 76.4704 177.841 76.4436C177.813 76.4168 177.767 76.4186 177.741 76.4474Z" fill="#F7D239"/>
<path d="M179.16 74.5976C179.195 74.5641 179.251 74.5652 179.285 74.6006L179.307 74.6238C179.312 74.6291 179.317 74.6335 179.322 74.6373C179.359 74.6276 179.397 74.6288 179.433 74.6406C179.439 74.6367 179.445 74.6326 179.45 74.6273L179.461 74.6176C179.496 74.5844 179.551 74.5858 179.584 74.6209C179.618 74.6559 179.616 74.7115 179.581 74.7447L179.571 74.7544C179.566 74.7594 179.561 74.7647 179.557 74.7706C179.568 74.8077 179.567 74.8465 179.556 74.883C179.559 74.8883 179.563 74.8933 179.568 74.8983L179.588 74.92C179.622 74.9554 179.621 75.0118 179.585 75.0457C179.55 75.0792 179.494 75.0777 179.46 75.0421L179.44 75.0213C179.436 75.0168 179.431 75.013 179.426 75.0095C179.388 75.0207 179.347 75.0198 179.309 75.0065C179.304 75.0098 179.299 75.0133 179.295 75.0174L179.284 75.028C179.249 75.0613 179.194 75.0598 179.161 75.0248C179.127 74.9898 179.128 74.9345 179.163 74.9009L179.175 74.8903C179.179 74.8862 179.183 74.8815 179.186 74.8765C179.176 74.8383 179.177 74.798 179.19 74.7606C179.186 74.7553 179.183 74.7503 179.178 74.7456L179.156 74.7226C179.123 74.6873 179.124 74.6314 179.16 74.5976ZM179.325 74.7659C179.297 74.7932 179.295 74.8386 179.322 74.8674C179.35 74.8959 179.395 74.8968 179.424 74.8697C179.452 74.8424 179.453 74.7971 179.426 74.7685C179.399 74.74 179.354 74.7388 179.325 74.7659Z" fill="#F7D239"/>
<path d="M180.164 77.9179L180.119 77.8581C179.946 77.6299 179.247 77.4369 179.101 77.2998C178.956 77.1624 179.021 77.2315 178.832 77.045C178.644 76.8582 178.339 76.8132 178.159 76.9023C177.98 76.9914 177.942 77.0265 177.846 77.1406C177.75 77.2545 177.602 77.5492 177.832 77.852L177.905 77.9493C177.996 78.0688 178.222 78.1782 178.434 78.1191C178.546 78.0876 178.651 78.0435 178.715 77.9467C178.77 77.8637 178.777 77.7875 178.765 77.7022C178.754 77.6169 178.72 77.5487 178.633 77.4966C178.547 77.4448 178.381 77.4972 178.288 77.4054C178.258 77.376 178.253 77.3457 178.252 77.3033C178.25 77.2448 178.307 77.1983 178.362 77.178C178.468 77.1388 178.706 77.243 178.868 77.3648C179.002 77.4645 179.166 77.6869 179.166 77.6869C179.166 77.6869 179.025 77.7346 179.024 77.8181C179.022 77.9017 179.048 77.9823 179.14 78.0417C179.233 78.1014 179.537 78.0997 179.545 78.017C179.553 77.9343 179.462 78.0155 179.341 77.9187C179.221 77.8217 179.278 77.7425 179.344 77.7516C179.41 77.7608 179.535 77.7478 179.615 77.799C179.695 77.8502 179.801 77.9049 179.839 78.0238C179.863 78.1006 179.843 78.1544 179.801 78.2229C179.702 78.3851 179.556 78.2094 179.416 78.18C179.342 78.1647 179.265 78.2065 179.253 78.2683C179.241 78.3303 179.277 78.4098 179.349 78.4254C179.421 78.4412 179.655 78.4642 179.738 78.5124C179.822 78.5607 179.874 78.6269 179.903 78.7293C179.938 78.8572 179.89 78.9452 179.83 79.0611C179.795 79.1294 179.755 79.1711 179.685 79.2185C179.538 79.318 179.301 79.3318 179.209 79.18C179.167 79.1111 179.148 79.0576 179.197 78.994C179.287 78.8793 179.46 79.0302 179.549 79.0155C179.638 79.0011 179.681 78.9417 179.697 78.8852C179.729 78.7725 179.678 78.7051 179.596 78.6201C179.514 78.5354 179.377 78.5007 179.229 78.5163C179.022 78.5377 178.876 78.6551 178.804 78.8096C178.742 78.9455 178.741 78.9582 178.769 79.1429C178.797 79.3277 178.886 79.4371 179.014 79.5518C179.142 79.6663 179.403 79.7645 179.649 79.6992C179.849 79.6463 179.973 79.536 180.017 79.3847C180.061 79.2332 180.28 78.0711 180.164 77.9179Z" fill="#F7D239"/>
<path d="M180.291 77.8211L180.246 77.7614C180.073 77.5334 180.075 76.807 179.983 76.6299C179.89 76.4531 179.939 76.5337 179.81 76.3016C179.681 76.0694 179.72 75.7632 179.854 75.6143C179.988 75.4652 180.032 75.4378 180.168 75.376C180.303 75.3142 180.626 75.2513 180.856 75.554L180.929 75.6514C181.02 75.7708 181.065 76.0177 180.95 76.2068C180.89 76.3063 180.82 76.3957 180.709 76.4316C180.615 76.4622 180.539 76.4487 180.461 76.4142C180.382 76.3798 180.325 76.3286 180.298 76.2312C180.272 76.1344 180.367 75.9888 180.304 75.8735C180.283 75.8367 180.256 75.8235 180.215 75.8111C180.159 75.7941 180.099 75.8367 180.065 75.8844C179.999 75.9756 180.035 76.233 180.108 76.4228C180.168 76.5784 180.338 76.7961 180.338 76.7961C180.338 76.7961 180.421 76.6734 180.502 76.6946C180.583 76.7158 180.654 76.7623 180.686 76.8673C180.719 76.972 180.635 77.2653 180.553 77.2509C180.472 77.2362 180.574 77.17 180.513 77.0276C180.453 76.8855 180.361 76.9197 180.352 76.9856C180.343 77.0512 180.297 77.1688 180.325 77.2598C180.352 77.3507 180.377 77.4677 180.481 77.5357C180.548 77.5795 180.605 77.5754 180.682 77.5534C180.865 77.5013 180.736 77.3127 180.745 77.17C180.75 77.095 180.811 77.0318 180.874 77.0371C180.936 77.0423 181.003 77.0974 180.999 77.1715C180.995 77.2453 180.954 77.4769 180.978 77.5704C181.002 77.6643 181.051 77.7325 181.142 77.7872C181.256 77.8555 181.353 77.8331 181.481 77.807C181.556 77.7917 181.607 77.764 181.671 77.7093C181.806 77.594 181.884 77.3689 181.762 77.2395C181.707 77.1809 181.661 77.148 181.587 77.1786C181.452 77.2336 181.551 77.4416 181.513 77.5234C181.475 77.6051 181.406 77.631 181.347 77.6313C181.23 77.6319 181.179 77.5645 181.12 77.4628C181.06 77.3607 181.064 77.2194 181.118 77.0806C181.195 76.8864 181.347 76.7773 181.515 76.7499C181.662 76.7261 181.675 76.7284 181.845 76.8052C182.015 76.8823 182.096 76.9973 182.172 77.1518C182.248 77.3062 182.272 77.5843 182.143 77.804C182.038 77.9826 181.899 78.072 181.742 78.0738C181.584 78.0759 180.407 77.9744 180.291 77.8211Z" fill="#F7D239"/>
<path d="M182.296 80.8259L182.332 80.8735C182.469 81.0544 182.467 81.6308 182.541 81.7711C182.614 81.9114 182.575 81.8476 182.678 82.0318C182.779 82.2156 182.749 82.4586 182.643 82.5769C182.536 82.6952 182.501 82.717 182.394 82.7661C182.286 82.8149 182.03 82.8649 181.848 82.6246L181.789 82.5475C181.717 82.4525 181.682 82.2568 181.773 82.1068C181.821 82.0279 181.877 81.9567 181.964 81.9285C182.039 81.9041 182.099 81.915 182.162 81.9423C182.224 81.9694 182.269 82.01 182.29 82.0874C182.311 82.1642 182.236 82.2798 182.286 82.3713C182.302 82.4004 182.324 82.4107 182.356 82.4207C182.4 82.4342 182.448 82.4004 182.475 82.3627C182.528 82.2901 182.499 82.0859 182.441 81.9356C182.394 81.812 182.259 81.6393 182.259 81.6393C182.259 81.6393 182.192 81.7367 182.128 81.7199C182.064 81.7032 182.008 81.6661 181.983 81.5828C181.957 81.4996 182.023 81.2669 182.088 81.2783C182.153 81.2901 182.071 81.3425 182.119 81.4554C182.168 81.5684 182.24 81.541 182.247 81.489C182.255 81.4369 182.291 81.3436 182.269 81.2716C182.247 81.1995 182.228 81.1065 182.145 81.0524C182.092 81.0177 182.047 81.0212 181.985 81.0386C181.84 81.0797 181.943 81.2295 181.936 81.3425C181.932 81.4022 181.884 81.4525 181.834 81.4481C181.784 81.444 181.731 81.4001 181.734 81.3416C181.738 81.2827 181.77 81.0992 181.751 81.025C181.732 80.9506 181.693 80.8962 181.621 80.8529C181.531 80.7988 181.453 80.8167 181.352 80.8373C181.293 80.8494 181.252 80.8715 181.201 80.915C181.094 81.0062 181.033 81.1848 181.129 81.2877C181.172 81.3342 181.209 81.3601 181.268 81.336C181.375 81.2922 181.297 81.1271 181.327 81.0624C181.357 80.9974 181.412 80.9771 181.458 80.9768C181.551 80.9762 181.591 81.0294 181.639 81.1103C181.686 81.1912 181.683 81.3033 181.64 81.4134C181.579 81.5675 181.458 81.6543 181.325 81.6758C181.208 81.6949 181.198 81.6931 181.063 81.632C180.928 81.5711 180.864 81.4799 180.803 81.3572C180.743 81.2345 180.724 81.0138 180.827 80.8394C180.91 80.6979 181.02 80.627 181.145 80.6255C181.27 80.624 182.204 80.7044 182.296 80.8259Z" fill="#F7D239"/>
<path d="M182.443 80.5632L182.475 80.6132C182.596 80.8035 183.132 81.001 183.236 81.1183C183.341 81.2354 183.295 81.1772 183.431 81.3358C183.567 81.4946 183.803 81.5502 183.95 81.4923C184.096 81.434 184.129 81.409 184.211 81.326C184.294 81.2428 184.429 81.0213 184.269 80.7685L184.218 80.6876C184.154 80.5876 183.985 80.487 183.814 80.5196C183.724 80.5367 183.639 80.5644 183.582 80.6361C183.534 80.6976 183.523 80.7568 183.527 80.8244C183.53 80.8924 183.552 80.948 183.617 80.9948C183.681 81.041 183.814 81.0107 183.882 81.0889C183.904 81.1139 183.906 81.1383 183.904 81.1713C183.901 81.2175 183.853 81.2501 183.808 81.2625C183.723 81.286 183.543 81.1887 183.423 81.0824C183.325 80.9957 183.212 80.8103 183.212 80.8103C183.212 80.8103 183.325 80.7821 183.332 80.7168C183.338 80.6512 183.323 80.5864 183.255 80.5335C183.186 80.4805 182.947 80.462 182.936 80.5261C182.924 80.5906 183.001 80.5329 183.089 80.6167C183.177 80.7009 183.127 80.7591 183.076 80.7476C183.025 80.7362 182.926 80.7382 182.866 80.6926C182.807 80.6473 182.727 80.5973 182.706 80.5014C182.692 80.4399 182.711 80.3987 182.748 80.3478C182.837 80.2272 182.94 80.3746 183.048 80.4067C183.104 80.4237 183.168 80.3961 183.181 80.3484C183.195 80.3005 183.172 80.236 183.116 80.2187C183.061 80.2016 182.879 80.1684 182.817 80.1248C182.754 80.0813 182.717 80.0263 182.702 79.9439C182.683 79.8412 182.727 79.7753 182.781 79.6885C182.813 79.6371 182.847 79.6071 182.905 79.5744C183.027 79.5061 183.214 79.5108 183.276 79.6362C183.304 79.6927 183.316 79.7362 183.273 79.7827C183.195 79.8671 183.069 79.7371 182.998 79.7427C182.928 79.7483 182.89 79.7918 182.873 79.8351C182.841 79.9215 182.876 79.9777 182.935 80.0498C182.994 80.1216 183.099 80.1578 183.216 80.1554C183.381 80.1522 183.503 80.0698 183.569 79.9533C183.627 79.8509 183.629 79.8409 183.619 79.6941C183.609 79.5473 183.546 79.4558 183.453 79.3573C183.36 79.259 183.162 79.1646 182.965 79.1996C182.804 79.2281 182.7 79.3064 182.655 79.4223C182.611 79.5382 182.363 80.4352 182.443 80.5632Z" fill="#F7D239"/>
<path d="M181.514 78.8369L181.929 78.5215L181.853 79.016L181.445 79.3255L181.514 78.8369Z" fill="#F7D239"/>
<path d="M181.949 79.4149L182.364 79.0992L181.868 79.0398L181.46 79.3496L181.949 79.4149Z" fill="#F7D239"/>
<path d="M180.909 79.3032L180.494 79.6189L180.99 79.6783L181.397 79.3685L180.909 79.3032Z" fill="#F7D239"/>
<path d="M181.343 79.8714L180.928 80.1868L181.004 79.6926L181.412 79.3831L181.343 79.8714Z" fill="#F7D239"/>
<path d="M180.901 79.2616L180.586 78.8459L181.08 78.9224L181.389 79.3305L180.901 79.2616Z" fill="#F7D239"/>
<path d="M181.486 78.8395L181.171 78.4238L181.112 78.9204L181.421 79.3285L181.486 78.8395Z" fill="#F7D239"/>
<path d="M181.377 79.8932L181.692 80.3089L181.751 79.8123L181.442 79.4043L181.377 79.8932Z" fill="#F7D239"/>
<path d="M181.957 79.4551L182.272 79.8708L181.778 79.7943L181.469 79.3862L181.957 79.4551Z" fill="#F7D239"/>
<path d="M182.36 78.3494C182.393 78.3246 182.439 78.3308 182.463 78.3635L182.48 78.3847C182.483 78.3894 182.487 78.3938 182.491 78.3973C182.523 78.3926 182.554 78.397 182.583 78.4102C182.588 78.4079 182.594 78.4047 182.598 78.4011L182.608 78.3938C182.64 78.3697 182.686 78.3761 182.71 78.4082C182.735 78.4403 182.728 78.4862 182.696 78.5103L182.687 78.5176C182.682 78.5212 182.678 78.5253 182.674 78.5294C182.679 78.5612 182.675 78.5935 182.662 78.623C182.664 78.6277 182.667 78.6324 182.67 78.6368L182.685 78.6565C182.71 78.6891 182.704 78.7356 182.672 78.7603C182.639 78.7851 182.593 78.7783 182.568 78.7459L182.553 78.7265C182.55 78.7224 182.547 78.7192 182.543 78.7159C182.51 78.7215 182.476 78.7171 182.446 78.7027C182.441 78.7047 182.437 78.7071 182.433 78.71L182.423 78.7177C182.391 78.7421 182.346 78.7359 182.321 78.7039C182.297 78.6715 182.303 78.6256 182.335 78.6012L182.345 78.5935C182.349 78.5906 182.353 78.5868 182.356 78.5832C182.351 78.5506 182.356 78.517 182.37 78.487C182.367 78.4823 182.365 78.4776 182.362 78.4735L182.346 78.4526C182.321 78.4202 182.328 78.3738 182.36 78.3494ZM182.481 78.5044C182.455 78.5244 182.45 78.5618 182.47 78.5879C182.489 78.6141 182.527 78.6191 182.553 78.5991C182.579 78.5794 182.584 78.542 182.565 78.5159C182.545 78.4897 182.507 78.4847 182.481 78.5044Z" fill="#F7D239"/>
<path d="M180.209 79.9834C180.241 79.959 180.288 79.9652 180.312 79.9978L180.328 80.019C180.332 80.0237 180.336 80.0278 180.34 80.0316C180.371 80.0269 180.402 80.0316 180.431 80.0449C180.436 80.0422 180.442 80.0393 180.447 80.0352L180.456 80.0281C180.489 80.0037 180.535 80.0102 180.559 80.0425C180.583 80.0746 180.577 80.1202 180.545 80.1446L180.535 80.1517C180.531 80.1555 180.526 80.159 180.523 80.1634C180.528 80.1955 180.524 80.2282 180.511 80.2576C180.513 80.2623 180.516 80.2667 180.519 80.2708L180.534 80.2908C180.559 80.3235 180.553 80.37 180.52 80.3947C180.488 80.4191 180.441 80.4126 180.417 80.3803L180.402 80.3606C180.399 80.3567 180.396 80.3535 180.392 80.3503C180.359 80.3561 180.325 80.3514 180.295 80.3367C180.29 80.3388 180.286 80.3414 180.282 80.3444L180.272 80.3517C180.24 80.3762 180.194 80.37 180.17 80.3379C180.146 80.3058 180.152 80.2596 180.184 80.2352L180.194 80.2279C180.198 80.2246 180.202 80.2208 180.205 80.2173C180.2 80.1846 180.205 80.1514 180.219 80.1217C180.216 80.117 180.214 80.1123 180.211 80.1078L180.195 80.0869C180.17 80.0543 180.176 80.0081 180.209 79.9834ZM180.331 80.1393C180.305 80.1593 180.299 80.1967 180.319 80.2229C180.339 80.2491 180.376 80.2543 180.403 80.2343C180.429 80.2146 180.434 80.177 180.414 80.1508C180.394 80.1246 180.357 80.1196 180.331 80.1393Z" fill="#F7D239"/>
<path d="M261.816 57.5725C261.844 57.0136 261.747 56.4555 261.532 55.9389C261.317 55.4222 260.99 54.9601 260.575 54.5861C255.649 50.1264 251.66 44.7302 248.838 38.7113C248.602 38.2041 248.256 37.7557 247.825 37.3994C247.395 37.0429 246.89 36.7869 246.348 36.6501C245.828 36.5183 245.285 36.5021 244.757 36.6025C244.23 36.7031 243.731 36.9181 243.296 37.232C237.297 38.8189 232.862 42.1078 230.109 47.0106C229.407 47.5504 228.921 48.3233 228.736 49.1903C228.552 50.057 228.682 50.9613 229.103 51.7407C232.698 58.2951 237.161 64.3323 242.372 69.6879C243.001 70.3266 243.839 70.7167 244.732 70.7864C245.625 70.8561 246.513 70.601 247.234 70.0677L260.325 60.36C260.765 60.0355 261.127 59.6169 261.385 59.1347C261.643 58.6525 261.79 58.1189 261.816 57.5725Z" fill="#44BEFF"/>
<path d="M246.938 45.1248L235.92 53.2952C235.829 53.3626 235.727 53.4114 235.618 53.4391C235.508 53.4664 235.395 53.4723 235.283 53.4558C235.172 53.4394 235.064 53.4008 234.968 53.3429C234.871 53.2849 234.787 53.2084 234.72 53.1175C234.653 53.0269 234.604 52.9239 234.577 52.8145C234.55 52.705 234.545 52.5912 234.561 52.4797C234.578 52.3679 234.617 52.2608 234.675 52.1643C234.733 52.0675 234.81 51.9834 234.9 51.9163L245.919 43.7459C246.102 43.6111 246.33 43.5543 246.555 43.5882C246.779 43.6217 246.981 43.7432 247.116 43.9259C247.251 44.1083 247.308 44.3372 247.275 44.562C247.241 44.7867 247.12 44.9891 246.938 45.1248Z" fill="white"/>
<path d="M251.016 50.6403L239.998 58.8108C239.815 58.9461 239.586 59.0035 239.362 58.9699C239.137 58.9364 238.935 58.8149 238.8 58.6319C238.664 58.4492 238.607 58.22 238.641 57.9949C238.674 57.7699 238.796 57.5672 238.979 57.4319L249.997 49.2614C250.087 49.194 250.19 49.1452 250.299 49.1175C250.408 49.0899 250.522 49.0843 250.634 49.1008C250.745 49.1173 250.852 49.1558 250.949 49.2138C251.045 49.2717 251.13 49.3482 251.197 49.4388C251.264 49.5297 251.312 49.6327 251.34 49.7421C251.367 49.8516 251.372 49.9654 251.355 50.0769C251.339 50.1887 251.3 50.2958 251.242 50.3923C251.184 50.4891 251.107 50.5732 251.016 50.6403Z" fill="white"/>
<path d="M255.094 56.1559L244.076 64.3264C243.893 64.4617 243.664 64.5191 243.439 64.4855C243.215 64.452 243.012 64.3305 242.877 64.1475C242.742 63.9648 242.685 63.7356 242.718 63.5106C242.752 63.2855 242.874 63.0828 243.056 62.9475L254.075 54.777C254.165 54.7099 254.268 54.6614 254.377 54.634C254.486 54.6067 254.599 54.6011 254.711 54.6179C254.822 54.6343 254.929 54.6729 255.025 54.7308C255.122 54.7888 255.206 54.8653 255.273 54.9556C255.34 55.0462 255.388 55.1492 255.416 55.2583C255.443 55.3678 255.448 55.4813 255.432 55.5928C255.415 55.7043 255.377 55.8114 255.319 55.9079C255.261 56.0044 255.184 56.0888 255.094 56.1559Z" fill="white"/>
</g>
</g>
<defs>
<clipPath id="clip0_362_3630">
<rect width="265" height="218" fill="white" transform="translate(0.5)"/>
</clipPath>
</defs>
</svg>
