<svg width="242" height="238" viewBox="0 0 242 238" fill="none" xmlns="http://www.w3.org/2000/svg">
<g filter="url(#filter0_f_352_575)">
<path d="M76.3308 72.2412L76.3309 8.42511L118.842 52.418L118.842 115.074L76.3308 72.2412Z" fill="#F0FBFF"/>
<path d="M164.818 72.5425L164.818 8.72638L122.307 52.7193L122.307 115.375L164.818 72.5425Z" fill="#F0FBFF"/>
<path d="M76.8425 165.759L76.8426 229.575L119.353 185.582L119.353 122.926L76.8425 165.759Z" fill="#F0FBFF"/>
<path d="M164.368 165.458L164.368 229.274L121.857 185.281L121.857 122.625L164.368 165.458Z" fill="#F0FBFF"/>
<path d="M72.2413 163.466L8.42523 163.466L52.4181 120.955L115.074 120.955L72.2413 163.466Z" fill="#F0FBFF"/>
<path d="M74.4047 75.2203L10.5886 75.2205L54.5815 117.731L117.237 117.731L74.4047 75.2203Z" fill="#F0FBFF"/>
<path d="M169.064 163.707L232.88 163.706L188.887 121.196L126.231 121.196L169.064 163.707Z" fill="#F0FBFF"/>
<path d="M169.242 74.7391L233.059 74.7393L189.066 117.25L126.41 117.25L169.242 74.7391Z" fill="#F0FBFF"/>
<path fill-rule="evenodd" clip-rule="evenodd" d="M214.514 132.109V131.235C214.514 130.891 214.485 130.554 214.429 130.226C212.368 129.145 210.684 127.444 209.623 125.372C209.277 125.309 208.92 125.276 208.556 125.276H206.752C203.914 125.276 201.614 122.976 201.614 120.138C201.614 117.3 203.914 115 206.752 115H208.611C208.999 115 209.378 114.962 209.745 114.891C210.805 112.935 212.427 111.328 214.394 110.288C214.473 109.903 214.514 109.504 214.514 109.096V108.276C214.514 105.469 216.79 103.193 219.598 103.193C222.406 103.193 224.682 105.469 224.682 108.276V109.096C224.682 109.482 224.719 109.859 224.789 110.224C226.819 111.267 228.491 112.907 229.572 114.913C229.901 114.97 230.24 115 230.585 115H232.334C235.172 115 237.473 117.3 237.473 120.138C237.473 122.976 235.172 125.276 232.334 125.276H230.64C230.317 125.276 230.001 125.302 229.692 125.351C228.612 127.473 226.878 129.207 224.756 130.287C224.707 130.596 224.682 130.912 224.682 131.235V132.109C224.682 134.917 222.406 137.193 219.598 137.193C216.79 137.193 214.514 134.917 214.514 132.109ZM219.509 115.72C221.814 115.72 223.684 117.589 223.684 119.895C223.684 122.201 221.814 124.07 219.509 124.07C217.203 124.07 215.333 122.201 215.333 119.895C215.333 117.589 217.203 115.72 219.509 115.72Z" fill="#DEF6FF"/>
<path fill-rule="evenodd" clip-rule="evenodd" d="M115.497 228.144V227.27C115.497 226.926 115.467 226.589 115.411 226.261C113.351 225.18 111.666 223.479 110.605 221.407C110.259 221.344 109.903 221.312 109.538 221.312H107.734C104.897 221.312 102.596 219.011 102.596 216.173C102.596 213.336 104.897 211.035 107.734 211.035H109.593C109.981 211.035 110.36 210.998 110.727 210.926C111.787 208.97 113.409 207.364 115.376 206.323C115.455 205.938 115.497 205.54 115.497 205.132V204.312C115.497 201.504 117.773 199.228 120.58 199.228C123.388 199.228 125.664 201.504 125.664 204.312V205.132C125.664 205.517 125.701 205.894 125.771 206.259C127.801 207.301 129.473 208.942 130.554 210.948C130.883 211.005 131.222 211.035 131.567 211.035H133.316C136.154 211.035 138.455 213.336 138.455 216.173C138.455 219.011 136.154 221.312 133.316 221.312H131.622C131.3 221.312 130.983 221.337 130.675 221.386C129.594 223.508 127.86 225.242 125.739 226.323C125.689 226.631 125.664 226.947 125.664 227.27V228.144C125.664 230.952 123.388 233.228 120.58 233.228C117.773 233.228 115.497 230.952 115.497 228.144ZM120.491 211.755C122.797 211.755 124.666 213.624 124.666 215.93C124.666 218.236 122.797 220.105 120.491 220.105C118.185 220.105 116.316 218.236 116.316 215.93C116.316 213.624 118.185 211.755 120.491 211.755Z" fill="#DEF6FF"/>
<path fill-rule="evenodd" clip-rule="evenodd" d="M18.8646 132.109V131.235C18.8646 130.891 18.8354 130.554 18.7795 130.226C16.7189 129.145 15.0343 127.444 13.9733 125.372C13.6271 125.309 13.2706 125.277 12.9064 125.277H11.1025C8.26472 125.277 5.96423 122.976 5.96423 120.138C5.96423 117.301 8.26472 115 11.1025 115H12.961C13.3491 115 13.7283 114.963 14.0955 114.891C15.1551 112.935 16.777 111.329 18.7443 110.288C18.8232 109.903 18.8646 109.505 18.8646 109.096V108.277C18.8646 105.469 21.1406 103.193 23.9482 103.193C26.7558 103.193 29.0318 105.469 29.0318 108.277V109.096C29.0318 109.482 29.0688 109.859 29.1394 110.224C31.1692 111.266 32.8412 112.907 33.9224 114.913C34.2515 114.97 34.5899 115 34.9353 115H36.6845C39.5223 115 41.8228 117.301 41.8228 120.138C41.8228 122.976 39.5223 125.277 36.6845 125.277H34.99C34.6677 125.277 34.3513 125.302 34.0429 125.351C32.9621 127.473 31.2285 129.207 29.1067 130.288C29.0574 130.596 29.0318 130.912 29.0318 131.235V132.109C29.0318 134.917 26.7558 137.193 23.9482 137.193C21.1406 137.193 18.8646 134.917 18.8646 132.109ZM23.8589 115.72C26.1648 115.72 28.0341 117.589 28.0341 119.895C28.0341 122.201 26.1648 124.07 23.8589 124.07C21.5529 124.07 19.6836 122.201 19.6836 119.895C19.6836 117.589 21.5529 115.72 23.8589 115.72Z" fill="#DEF6FF"/>
<path fill-rule="evenodd" clip-rule="evenodd" d="M115.497 33.6884V32.8138C115.497 32.4698 115.467 32.1327 115.411 31.8047C113.351 30.7238 111.666 29.0234 110.605 26.9508C110.259 26.8882 109.903 26.8556 109.538 26.8556H107.734C104.897 26.8556 102.596 24.5551 102.596 21.7173C102.596 18.8795 104.897 16.579 107.734 16.579H109.593C109.981 16.579 110.36 16.5416 110.727 16.4701C111.787 14.5143 113.409 12.9075 115.376 11.8667C115.455 11.4819 115.497 11.0835 115.497 10.6755V9.85553C115.497 7.04793 117.773 4.77193 120.58 4.77193C123.388 4.77193 125.664 7.04793 125.664 9.85553V10.6755C125.664 11.0611 125.701 11.4381 125.771 11.8031C127.801 12.8454 129.473 14.4862 130.554 16.4924C130.883 16.5494 131.222 16.579 131.567 16.579H133.316C136.154 16.579 138.455 18.8795 138.455 21.7173C138.455 24.5551 136.154 26.8556 133.316 26.8556H131.622C131.3 26.8556 130.983 26.8812 130.675 26.9304C129.594 29.0522 127.86 30.7858 125.739 31.8665C125.689 32.175 125.664 32.4914 125.664 32.8138V33.6884C125.664 36.496 123.388 38.772 120.58 38.772C117.773 38.772 115.497 36.496 115.497 33.6884ZM120.491 17.2988C122.797 17.2988 124.666 19.1681 124.666 21.474C124.666 23.78 122.797 25.6493 120.491 25.6493C118.185 25.6493 116.316 23.78 116.316 21.474C116.316 19.1681 118.185 17.2988 120.491 17.2988Z" fill="#DEF6FF"/>
</g>
<defs>
<filter id="filter0_f_352_575" x="1.96423" y="0.771973" width="239.508" height="236.456" filterUnits="userSpaceOnUse" color-interpolation-filters="sRGB">
<feFlood flood-opacity="0" result="BackgroundImageFix"/>
<feBlend mode="normal" in="SourceGraphic" in2="BackgroundImageFix" result="shape"/>
<feGaussianBlur stdDeviation="2" result="effect1_foregroundBlur_352_575"/>
</filter>
</defs>
</svg>
