<svg width="393" height="108" viewBox="0 0 393 108" fill="none" xmlns="http://www.w3.org/2000/svg">
<g filter="url(#filter0_f_352_574)">
<path d="M284.083 47.645H282.479C276.362 47.645 264.028 38.2176 259.816 37.5156C255.605 36.8137 257.611 37.017 251.995 36.2134C246.379 35.4098 241.666 30.7957 240.864 26.5855C240.062 22.3753 240.162 21.2708 240.864 18.1623C241.566 15.0537 244.675 8.73628 252.797 8.73628H255.404C258.613 8.73628 263.392 11.1634 265.131 15.5551C266.047 17.8674 266.655 20.2271 265.833 22.5744C265.131 24.58 263.928 25.683 262.323 26.5855C260.719 27.488 259.115 27.7888 257.109 26.9866C255.116 26.1894 253.866 22.6882 251.092 22.2736C250.202 22.1404 249.618 22.4513 248.886 22.9769C247.869 23.7083 247.82 25.2864 248.184 26.4852C248.886 28.7916 253.734 31.4993 257.911 32.7038C261.335 33.691 267.237 33.6048 267.237 33.6048C267.237 33.6048 266.234 30.5962 267.638 29.4935C269.042 28.3908 270.747 27.7902 272.953 28.591C275.159 29.3918 279.07 34.6076 277.766 35.8109C276.462 37.0142 276.663 34.4071 273.454 33.6048C270.245 32.8026 269.644 34.8082 270.646 35.8109C271.649 36.8137 273.053 39.1204 274.958 39.822C276.864 40.5236 279.17 41.6256 281.677 40.7245C283.292 40.1438 283.96 39.1149 284.585 37.5156C286.062 33.7323 281.175 33.5032 278.869 31.499C277.657 30.4459 277.365 28.5896 278.267 27.5883C279.17 26.5869 280.975 26.1595 282.178 27.1885C283.381 28.2176 286.791 31.9019 288.696 32.7038C290.601 33.5056 292.404 33.5487 294.512 32.7038C297.142 31.6499 298.022 29.694 299.225 27.1885C299.937 25.7059 300.128 24.4797 300.027 22.6747C299.817 18.8844 296.984 14.6591 293.209 15.0537C291.502 15.2321 290.342 15.6043 289.899 17.2626C289.097 20.2681 293.911 21.2736 294.813 22.9769C295.716 24.6802 295.264 26.1863 294.512 27.1885C293.008 29.1927 291.203 29.1955 288.696 28.8932C286.189 28.591 283.832 26.7049 282.178 23.9797C279.862 20.1631 279.972 16.1567 281.677 12.9481C283.178 10.1221 283.382 9.93958 286.891 8.03512C290.401 6.13066 293.409 6.22957 297.019 6.9327C300.629 7.63583 305.677 10.8161 307.749 15.8573C309.43 19.9504 309.153 23.4783 307.147 26.1858C305.142 28.8932 288.195 47.645 284.083 47.645Z" fill="url(#paint0_linear_352_574)" fill-opacity="0.5"/>
<path d="M286.29 62.8238H284.685C278.568 62.8238 266.234 72.2512 262.023 72.9531C257.811 73.6551 259.817 73.4517 254.201 74.2553C248.586 75.0589 243.873 79.673 243.07 83.8833C242.268 88.0935 242.368 89.1979 243.07 92.3065C243.772 95.4151 246.881 101.732 255.003 101.732H257.611C260.819 101.732 265.599 99.3053 267.337 94.9137C268.253 92.6014 268.861 90.2416 268.039 87.8943C267.337 85.8888 266.134 84.7857 264.53 83.8833C262.925 82.9808 261.321 82.6799 259.315 83.4822C257.322 84.2793 256.072 87.7805 253.299 88.1951C252.408 88.3283 251.824 88.0175 251.093 87.4918C250.075 86.7604 250.026 85.1824 250.391 83.9835C251.093 81.6772 255.94 78.9694 260.117 77.765C263.542 76.7777 269.443 76.8639 269.443 76.8639C269.443 76.8639 268.44 79.8725 269.844 80.9752C271.248 82.078 272.953 82.6785 275.159 81.8777C277.365 81.0769 281.276 75.8611 279.972 74.6578C278.669 73.4545 278.869 76.0617 275.66 76.8639C272.451 77.6661 271.85 75.6606 272.852 74.6578C273.855 73.6551 275.259 71.3484 277.164 70.6468C279.07 69.9452 281.376 68.8432 283.883 69.7443C285.499 70.325 286.167 71.3538 286.791 72.9531C288.268 76.7365 283.382 76.9656 281.075 78.9697C279.863 80.0228 279.571 81.8791 280.473 82.8805C281.376 83.8818 283.181 84.3093 284.384 83.2802C285.588 82.2511 288.997 78.5669 290.902 77.765C292.808 76.9631 294.61 76.9201 296.718 77.765C299.348 78.8189 300.228 80.7747 301.431 83.2802C302.143 84.7628 302.334 85.9891 302.234 87.7941C302.023 91.5843 299.19 95.8096 295.415 95.4151C293.708 95.2367 292.548 94.8645 292.106 93.2062C291.303 90.2007 296.117 89.1951 297.019 87.4918C297.922 85.7885 297.47 84.2825 296.718 83.2802C295.214 81.2761 293.409 81.2733 290.902 81.5755C288.395 81.8777 286.038 83.7638 284.384 86.4891C282.068 90.3057 282.178 94.312 283.883 97.5207C285.384 100.347 285.588 100.529 289.097 102.434C292.607 104.338 295.615 104.239 299.225 103.536C302.835 102.833 307.883 99.6527 309.955 94.6114C311.637 90.5184 311.359 86.9904 309.353 84.283C307.348 81.5755 290.401 62.8238 286.29 62.8238Z" fill="url(#paint1_linear_352_574)" fill-opacity="0.5"/>
<path d="M347.017 46.497H348.622C354.739 46.497 367.072 37.0696 371.284 36.3677C375.496 35.6657 373.49 35.8691 379.106 35.0655C384.721 34.2619 389.434 29.6478 390.236 25.4375C391.039 21.2273 390.938 20.1229 390.236 17.0143C389.534 13.9058 386.426 7.58833 378.303 7.58833H375.696C372.487 7.58833 367.708 10.0155 365.969 14.4071C365.054 16.7194 364.446 19.0792 365.267 21.4265C365.969 23.432 367.173 24.5351 368.777 25.4375C370.382 26.34 371.986 26.6409 373.991 25.8386C375.984 25.0415 377.235 21.5403 380.008 21.1257C380.899 20.9925 381.483 21.3033 382.214 21.829C383.232 22.5604 383.281 24.1384 382.916 25.3373C382.214 27.6436 377.367 30.3514 373.189 31.5558C369.765 32.5431 363.864 32.4569 363.864 32.4569C363.864 32.4569 364.866 29.4483 363.463 28.3456C362.059 27.2428 360.354 26.6423 358.148 27.4431C355.942 28.2439 352.031 33.4597 353.335 34.663C354.638 35.8663 354.438 33.2591 357.647 32.4569C360.855 31.6547 361.457 33.6602 360.454 34.663C359.451 35.6657 358.048 37.9724 356.142 38.674C354.237 39.3756 351.931 40.4776 349.424 39.5765C347.808 38.9958 347.14 37.967 346.516 36.3677C345.039 32.5843 349.925 32.3552 352.232 30.3511C353.444 29.298 353.736 27.4417 352.833 26.4403C351.931 25.439 350.126 25.0115 348.922 26.0406C347.719 27.0697 344.31 30.7539 342.405 31.5558C340.499 32.3577 338.697 32.4007 336.588 31.5558C333.959 30.5019 333.079 28.5461 331.875 26.0406C331.163 24.558 330.973 23.3317 331.073 21.5267C331.284 17.7365 334.116 13.5112 337.892 13.9057C339.599 14.0841 340.759 14.4563 341.201 16.1146C342.003 19.1201 337.19 20.1257 336.288 21.829C335.385 23.5323 335.836 25.0383 336.588 26.0406C338.093 28.0447 339.898 28.0475 342.405 27.7453C344.911 27.4431 347.269 25.557 348.922 22.8317C351.238 19.0151 351.128 15.0088 349.424 11.8001C347.922 8.97419 347.719 8.79163 344.209 6.88717C340.7 4.98271 337.691 5.08162 334.082 5.78475C330.472 6.48788 325.423 9.66812 323.352 14.7094C321.67 18.8024 321.948 22.3304 323.954 25.0378C325.959 27.7453 342.906 46.497 347.017 46.497Z" fill="url(#paint2_linear_352_574)" fill-opacity="0.5"/>
<path d="M347.017 61.6758H348.622C354.739 61.6758 367.072 71.1032 371.284 71.8051C375.496 72.507 373.49 72.3037 379.106 73.1073C384.721 73.9109 389.434 78.525 390.236 82.7352C391.039 86.9455 390.938 88.0499 390.236 91.1585C389.534 94.267 386.426 100.584 378.303 100.584H375.696C372.487 100.584 367.708 98.1573 365.969 93.7657C365.054 91.4534 364.446 89.0936 365.267 86.7463C365.969 84.7408 367.173 83.6377 368.777 82.7352C370.382 81.8328 371.986 81.5319 373.991 82.3341C375.984 83.1313 377.235 86.6325 380.008 87.0471C380.899 87.1803 381.483 86.8695 382.214 86.3438C383.232 85.6124 383.281 84.0344 382.916 82.8355C382.214 80.5292 377.367 77.8214 373.189 76.617C369.765 75.6297 363.864 75.7159 363.864 75.7159C363.864 75.7159 364.866 78.7245 363.463 79.8272C362.059 80.9299 360.354 81.5305 358.148 80.7297C355.942 79.9289 352.031 74.7131 353.335 73.5098C354.638 72.3065 354.438 74.9137 357.647 75.7159C360.855 76.5181 361.457 74.5126 360.454 73.5098C359.451 72.507 358.048 70.2004 356.142 69.4988C354.237 68.7972 351.931 67.6952 349.424 68.5963C347.808 69.177 347.14 70.2058 346.516 71.8051C345.039 75.5884 349.925 75.8176 352.232 77.8217C353.444 78.8748 353.736 80.7311 352.833 81.7325C351.931 82.7338 350.126 83.1613 348.922 82.1322C347.719 81.1031 344.31 77.4189 342.405 76.617C340.499 75.8151 338.697 75.7721 336.588 76.617C333.959 77.6709 333.079 79.6267 331.875 82.1322C331.163 83.6148 330.973 84.8411 331.073 86.646C331.284 90.4363 334.116 94.6616 337.892 94.2671C339.599 94.0887 340.759 93.7165 341.201 92.0582C342.003 89.0527 337.19 88.0471 336.288 86.3438C335.385 84.6405 335.836 83.1345 336.588 82.1322C338.093 80.1281 339.898 80.1253 342.405 80.4275C344.911 80.7297 347.269 82.6158 348.922 85.341C351.238 89.1577 351.128 93.164 349.424 96.3726C347.922 99.1986 347.719 99.3812 344.209 101.286C340.7 103.19 337.691 103.091 334.082 102.388C330.472 101.685 325.423 98.5047 323.352 93.4634C321.67 89.3703 321.948 85.8424 323.954 83.1349C325.959 80.4275 342.906 61.6758 347.017 61.6758Z" fill="url(#paint3_linear_352_574)" fill-opacity="0.5"/>
<path fill-rule="evenodd" clip-rule="evenodd" d="M377.702 65.0558L356.469 53.6453L377.702 42.2837L386.131 46.8118L394.095 42.5506L415.243 53.9122L394.095 65.3228L385.634 60.7762L377.702 65.0558ZM390.921 57.9238L394.29 59.6086L405.292 54.0844L394.29 48.5838L391.767 49.8399L398.851 53.6453L390.921 57.9238ZM386.345 52.5397L388.9 53.817L385.811 55.3683L383.243 54.0844L386.345 52.5397ZM380.7 49.7177L372.861 53.9122L380.517 58.0262L377.898 59.3413L366.851 53.817L377.898 48.3165L380.7 49.7177Z" fill="#F7FDFF"/>
<path d="M310.418 48.0432C314.674 43.5957 314.83 39.4264 314.258 36.7761C313.844 34.8638 311.96 33.8665 310.003 33.8665H308.798C306.24 33.8665 304.166 35.9405 304.166 38.499V38.6464C304.166 41.1234 302.158 43.1315 299.681 43.1315C297.204 43.1315 295.196 45.1395 295.196 47.6166V48.4212C295.196 50.4851 296.416 52.3896 298.465 52.6338C301.474 52.9923 306.11 52.5458 310.418 48.0432Z" fill="#E7F7FF"/>
<path d="M310.418 60.1679C314.674 64.6154 314.83 68.7846 314.258 71.4349C313.844 73.3472 311.96 74.3446 310.003 74.3446H308.798C306.24 74.3446 304.166 72.2706 304.166 69.7121V69.5647C304.166 67.0876 302.158 65.0796 299.681 65.0796C297.204 65.0796 295.196 63.0715 295.196 60.5945V59.7898C295.196 57.726 296.416 55.8214 298.465 55.5773C301.474 55.2188 306.11 55.6653 310.418 60.1679Z" fill="#E7F7FF"/>
<path d="M320.657 60.1679C316.401 64.6154 316.244 68.7846 316.817 71.4349C317.231 73.3472 319.115 74.3446 321.071 74.3446H322.276C324.835 74.3446 326.909 72.2706 326.909 69.7121V69.5647C326.909 67.0876 328.917 65.0796 331.394 65.0796C333.871 65.0796 335.879 63.0715 335.879 60.5945V59.7898C335.879 57.726 334.659 55.8214 332.609 55.5773C329.601 55.2188 324.965 55.6653 320.657 60.1679Z" fill="#E7F7FF"/>
<path d="M320.657 48.0433C316.401 43.5958 316.244 39.4266 316.817 36.7762C317.231 34.8639 319.115 33.8666 321.071 33.8666H322.276C324.835 33.8666 326.909 35.9406 326.909 38.4991V38.6465C326.909 41.1235 328.917 43.1316 331.394 43.1316C333.871 43.1316 335.879 45.1397 335.879 47.6167V48.4213C335.879 50.4852 334.659 52.3898 332.609 52.6339C329.601 52.9924 324.965 52.5459 320.657 48.0433Z" fill="#E7F7FF"/>
<path fill-rule="evenodd" clip-rule="evenodd" d="M309.547 50.1431C306.573 51.7661 306.514 56.0156 309.441 57.721L309.624 57.8275C310.275 58.2065 310.819 58.7436 311.206 59.389L311.283 59.5168C313.206 62.7194 317.85 62.7129 319.764 59.5049L319.828 59.3982C320.216 58.7469 320.764 58.2054 321.42 57.8248L321.603 57.719C324.534 56.0179 324.475 51.7641 321.497 50.1454C320.793 49.7626 320.208 49.1924 319.808 48.4978L319.735 48.3706C317.866 45.1284 313.19 45.122 311.312 48.359L311.226 48.5069C310.827 49.1957 310.246 49.7617 309.547 50.1431ZM315.518 51.5844C314.164 51.5844 313.067 52.6818 313.067 54.0355C313.067 55.3892 314.164 56.4866 315.518 56.4866C316.872 56.4866 317.969 55.3892 317.969 54.0355C317.969 52.6818 316.872 51.5844 315.518 51.5844Z" fill="#E7F7FF"/>
<path d="M73.5496 60.3553H71.9451C65.8283 60.3553 53.4944 69.7827 49.2826 70.4846C45.0709 71.1866 47.0767 70.9832 41.4611 71.7868C35.8456 72.5904 31.1326 77.2045 30.3304 81.4148C29.5282 85.625 29.6285 86.7294 30.3305 89.838C31.0325 92.9465 34.1409 99.264 42.2633 99.264H44.8706C48.0794 99.264 52.8587 96.8368 54.5974 92.4452C55.5129 90.1329 56.1209 87.7731 55.2993 85.4258C54.5974 83.4203 53.3941 82.3172 51.7897 81.4148C50.1852 80.5123 48.5808 80.2114 46.5753 81.0136C44.5824 81.8108 43.3321 85.312 40.5587 85.7266C39.6679 85.8598 39.0839 85.549 38.3525 85.0233C37.335 84.2919 37.2858 82.7139 37.6506 81.515C38.3525 79.2087 43.2001 76.5009 47.3774 75.2965C50.8015 74.3092 56.7032 74.3954 56.7032 74.3954C56.7032 74.3954 55.7004 77.404 57.1042 78.5067C58.508 79.6094 60.2127 80.21 62.4189 79.4092C64.625 78.6084 68.5357 73.3926 67.2321 72.1893C65.9285 70.986 66.1292 73.5932 62.9202 74.3954C59.7113 75.1976 59.1097 73.1921 60.1125 72.1893C61.1153 71.1866 62.519 68.8799 64.4244 68.1783C66.3297 67.4767 68.6361 66.3747 71.143 67.2758C72.7586 67.8565 73.4266 68.8853 74.0509 70.4846C75.5278 74.268 70.6416 74.4971 68.3352 76.5012C67.1232 77.5543 66.831 79.4106 67.7335 80.412C68.636 81.4133 70.4411 81.8408 71.6443 80.8117C72.8475 79.7826 76.2569 76.0984 78.1623 75.2965C80.0676 74.4946 81.87 74.4516 83.9783 75.2965C86.6081 76.3504 87.4881 78.3062 88.6913 80.8117C89.4033 82.2943 89.5939 83.5206 89.4936 85.3255C89.283 89.1158 86.4504 93.3411 82.6748 92.9466C80.9677 92.7682 79.8081 92.396 79.3656 90.7377C78.5635 87.7322 83.3767 86.7266 84.2792 85.0233C85.1817 83.32 84.7305 81.814 83.9783 80.8117C82.4742 78.8076 80.6691 78.8048 78.1623 79.107C75.6555 79.4092 73.2979 81.2953 71.6443 84.0205C69.3284 87.8372 69.4383 91.8435 71.143 95.0522C72.6444 97.8781 72.8477 98.0607 76.3574 99.9651C79.8671 101.87 82.8753 101.771 86.4852 101.068C90.095 100.364 95.1434 97.1842 97.2148 92.1429C98.8965 88.0498 98.6188 84.5219 96.6132 81.8144C94.6077 79.107 77.6609 60.3553 73.5496 60.3553Z" fill="url(#paint4_linear_352_574)" fill-opacity="0.5"/>
<path d="M75.7551 45.1764H74.1506C68.0337 45.1764 55.6998 35.7491 51.4881 35.0471C47.2764 34.3452 49.2821 34.5485 43.6666 33.7449C38.051 32.9413 33.3381 28.3272 32.5359 24.117C31.7336 19.9068 31.8339 18.8023 32.5359 15.6938C33.2379 12.5852 36.3463 6.26778 44.4687 6.26778H47.076C50.2849 6.26778 55.0641 8.69492 56.8029 13.0866C57.7183 15.3989 58.3263 17.7586 57.5048 20.1059C56.8029 22.1115 55.5995 23.2145 53.9951 24.117C52.3907 25.0195 50.7863 25.3203 48.7807 24.5181C46.7878 23.7209 45.5376 20.2197 42.7641 19.8051C41.8733 19.6719 41.2893 19.9828 40.558 20.5084C39.5404 21.2398 39.4913 22.8179 39.8561 24.0167C40.558 26.3231 45.4055 29.0308 49.5828 30.2353C53.007 31.2225 58.9086 31.1363 58.9086 31.1363C58.9086 31.1363 57.9059 28.1277 59.3097 27.025C60.7134 25.9223 62.4182 25.3217 64.6243 26.1225C66.8304 26.9233 70.7412 32.1391 69.4376 33.3424C68.134 34.5457 68.3346 31.9386 65.1257 31.1363C61.9168 30.3341 61.3152 32.3397 62.3179 33.3424C63.3207 34.3452 64.7245 36.6519 66.6298 37.3535C68.5352 38.0551 70.8415 39.1571 73.3485 38.256C74.9641 37.6753 75.6321 36.6464 76.2564 35.0471C77.7332 31.2638 72.8471 31.0347 70.5406 29.0305C69.3286 27.9774 69.0365 26.1211 69.939 25.1198C70.8414 24.1184 72.6465 23.691 73.8498 24.72C75.053 25.7491 78.4623 29.4334 80.3677 30.2353C82.2731 31.0371 84.0754 31.0802 86.1837 30.2353C88.8135 29.1814 89.6935 27.2255 90.8967 24.72C91.6087 23.2374 91.7993 22.0112 91.699 20.2062C91.4885 16.4159 88.6558 12.1906 84.8802 12.5852C83.1732 12.7636 82.0136 13.1358 81.571 14.7941C80.7689 17.7996 85.5822 18.8051 86.4847 20.5084C87.3871 22.2117 86.9359 23.7178 86.1837 24.72C84.6797 26.7242 82.8745 26.727 80.3677 26.4247C77.8609 26.1225 75.5034 24.2364 73.8498 21.5112C71.5339 17.6946 71.6438 13.6882 73.3485 10.4796C74.8498 7.65363 75.0532 7.47108 78.5628 5.56662C82.0725 3.66216 85.0808 3.76106 88.6906 4.4642C92.3005 5.16733 97.3489 8.34756 99.4202 13.3888C101.102 17.4819 100.824 21.0098 98.8187 23.7173C96.8131 26.4247 79.8663 45.1764 75.7551 45.1764Z" fill="url(#paint5_linear_352_574)" fill-opacity="0.5"/>
<path d="M136.483 61.5032H138.087C144.204 61.5032 156.538 70.9306 160.75 71.6326C164.962 72.3345 162.956 72.1311 168.571 72.9348C174.187 73.7384 178.9 78.3525 179.702 82.5627C180.504 86.7729 180.404 87.8774 179.702 90.9859C179 94.0945 175.892 100.412 167.769 100.412H165.162C161.953 100.412 157.174 97.9848 155.435 93.5931C154.52 91.2808 153.912 88.9211 154.733 86.5738C155.435 84.5682 156.638 83.4652 158.243 82.5627C159.847 81.6602 161.452 81.3594 163.457 82.1616C165.45 82.9587 166.7 86.46 169.474 86.8746C170.365 87.0078 170.949 86.6969 171.68 86.1713C172.698 85.4399 172.747 83.8618 172.382 82.663C171.68 80.3566 166.833 77.6489 162.655 76.4444C159.231 75.4572 153.329 75.5433 153.329 75.5433C153.329 75.5433 154.332 78.552 152.928 79.6547C151.525 80.7574 149.82 81.358 147.614 80.5572C145.408 79.7564 141.497 74.5406 142.8 73.3373C144.104 72.1339 143.903 74.7411 147.112 75.5433C150.321 76.3456 150.923 74.34 149.92 73.3373C148.917 72.3345 147.514 70.0278 145.608 69.3262C143.703 68.6246 141.397 67.5226 138.89 68.4237C137.274 69.0044 136.606 70.0333 135.982 71.6326C134.505 75.4159 139.391 75.645 141.697 77.6492C142.909 78.7023 143.202 80.5586 142.299 81.5599C141.397 82.5613 139.592 82.9887 138.388 81.9596C137.185 80.9306 133.776 77.2463 131.87 76.4444C129.965 75.6426 128.163 75.5995 126.054 76.4444C123.425 77.4983 122.545 79.4541 121.341 81.9596C120.629 83.4423 120.439 84.6685 120.539 86.4735C120.75 90.2638 123.582 94.4891 127.358 94.0945C129.065 93.9161 130.224 93.5439 130.667 91.8856C131.469 88.8801 126.656 87.8745 125.753 86.1713C124.851 84.468 125.302 82.9619 126.054 81.9596C127.558 79.9555 129.364 79.9527 131.87 80.2549C134.377 80.5572 136.735 82.4433 138.388 85.1685C140.704 88.9851 140.594 92.9915 138.89 96.2001C137.388 99.0261 137.185 99.2086 133.675 101.113C130.166 103.018 127.157 102.919 123.547 102.215C119.938 101.512 114.889 98.3321 112.818 93.2909C111.136 89.1978 111.414 85.6698 113.419 82.9624C115.425 80.2549 132.372 61.5032 136.483 61.5032Z" fill="url(#paint6_linear_352_574)" fill-opacity="0.5"/>
<path d="M136.483 46.3244H138.087C144.204 46.3244 156.538 36.897 160.75 36.1951C164.962 35.4931 162.956 35.6965 168.571 34.8929C174.187 34.0893 178.9 29.4752 179.702 25.2649C180.504 21.0547 180.404 19.9503 179.702 16.8417C179 13.7331 175.892 7.41572 167.769 7.41572H165.162C161.953 7.41572 157.174 9.84287 155.435 14.2345C154.52 16.5468 153.912 18.9066 154.733 21.2539C155.435 23.2594 156.638 24.3624 158.243 25.2649C159.847 26.1674 161.452 26.4683 163.457 25.666C165.45 24.8689 166.7 21.3677 169.474 20.953C170.365 20.8199 170.949 21.1307 171.68 21.6564C172.698 22.3878 172.747 23.9658 172.382 25.1647C171.68 27.471 166.833 30.1788 162.655 31.3832C159.231 32.3705 153.329 32.2843 153.329 32.2843C153.329 32.2843 154.332 29.2757 152.928 28.173C151.525 27.0702 149.82 26.4696 147.614 27.2705C145.408 28.0713 141.497 33.2871 142.8 34.4904C144.104 35.6937 143.903 33.0865 147.112 32.2843C150.321 31.4821 150.923 33.4876 149.92 34.4904C148.917 35.4931 147.514 37.7998 145.608 38.5014C143.703 39.203 141.397 40.305 138.89 39.4039C137.274 38.8232 136.606 37.7944 135.982 36.1951C134.505 32.4117 139.391 32.1826 141.697 30.1785C142.909 29.1254 143.202 27.2691 142.299 26.2677C141.397 25.2663 139.592 24.8389 138.388 25.868C137.185 26.8971 133.776 30.5813 131.87 31.3832C129.965 32.1851 128.163 32.2281 126.054 31.3832C123.425 30.3293 122.545 28.3735 121.341 25.868C120.629 24.3854 120.439 23.1591 120.539 21.3541C120.75 17.5638 123.582 13.3386 127.358 13.7331C129.065 13.9115 130.224 14.2837 130.667 15.942C131.469 18.9475 126.656 19.9531 125.753 21.6564C124.851 23.3597 125.302 24.8657 126.054 25.868C127.558 27.8721 129.364 27.8749 131.87 27.5727C134.377 27.2705 136.735 25.3844 138.388 22.6591C140.704 18.8425 140.594 14.8362 138.89 11.6275C137.388 8.80158 137.185 8.61903 133.675 6.71457C130.166 4.81011 127.157 4.90901 123.547 5.61214C119.938 6.31528 114.889 9.49551 112.818 14.5368C111.136 18.6298 111.414 22.1578 113.419 24.8652C115.425 27.5727 132.372 46.3244 136.483 46.3244Z" fill="url(#paint7_linear_352_574)" fill-opacity="0.5"/>
<path fill-rule="evenodd" clip-rule="evenodd" d="M25.2332 64.2111L4 52.8005L25.2332 41.4389L33.6616 45.9669L41.6256 41.7055L62.774 53.0671L41.6256 64.4777L33.1655 59.9312L25.2332 64.2111ZM38.4526 57.0786L41.8209 58.763L52.8236 53.2388L41.8209 47.7383L39.2976 48.9947L46.3816 52.8005L38.4526 57.0786ZM33.8757 51.6944L36.4311 52.9719L33.342 54.5229L30.7741 53.2388L33.8757 51.6944ZM28.2313 48.8726L20.3924 53.0671L28.0478 57.181L25.4285 58.4961L14.3816 52.9719L25.4285 47.4714L28.2313 48.8726Z" fill="#F7FDFF"/>
<path d="M100.288 48.0431C104.544 43.5955 104.7 39.4263 104.127 36.776C103.714 34.8637 101.83 33.8663 99.8733 33.8663H98.6682C96.1097 33.8663 94.0357 35.9404 94.0357 38.4988V38.6462C94.0357 41.1233 92.0276 43.1314 89.5505 43.1314C87.0735 43.1314 85.0654 45.1394 85.0654 47.6165V48.4211C85.0654 50.485 86.2858 52.3895 88.3352 52.6337C91.344 52.9921 95.9797 52.5457 100.288 48.0431Z" fill="#E7F7FF"/>
<path d="M100.288 60.1678C104.544 64.6153 104.7 68.7845 104.127 71.4348C103.714 73.3471 101.83 74.3445 99.8733 74.3445H98.6682C96.1097 74.3445 94.0357 72.2704 94.0357 69.712V69.5646C94.0357 67.0875 92.0276 65.0795 89.5505 65.0795C87.0735 65.0795 85.0654 63.0714 85.0654 60.5943V59.7897C85.0654 57.7259 86.2858 55.8213 88.3352 55.5771C91.344 55.2187 95.9797 55.6651 100.288 60.1678Z" fill="#E7F7FF"/>
<path d="M110.526 60.1678C106.271 64.6153 106.114 68.7845 106.687 71.4348C107.1 73.3471 108.985 74.3445 110.941 74.3445H112.146C114.705 74.3445 116.779 72.2704 116.779 69.712V69.5646C116.779 67.0875 118.787 65.0795 121.264 65.0795C123.741 65.0795 125.749 63.0714 125.749 60.5943V59.7897C125.749 57.7259 124.529 55.8213 122.479 55.5771C119.47 55.2187 114.835 55.6651 110.526 60.1678Z" fill="#E7F7FF"/>
<path d="M110.526 48.0432C106.271 43.5957 106.114 39.4264 106.687 36.7761C107.1 34.8638 108.985 33.8665 110.941 33.8665H112.146C114.705 33.8665 116.779 35.9405 116.779 38.499V38.6464C116.779 41.1234 118.787 43.1315 121.264 43.1315C123.741 43.1315 125.749 45.1395 125.749 47.6166V48.4212C125.749 50.4851 124.529 52.3896 122.479 52.6338C119.47 52.9923 114.835 52.5458 110.526 48.0432Z" fill="#E7F7FF"/>
<path fill-rule="evenodd" clip-rule="evenodd" d="M99.4169 50.143C96.4428 51.7659 96.3834 56.0155 99.311 57.7208L99.494 57.8274C100.144 58.2064 100.689 58.7435 101.076 59.3889L101.153 59.5166C103.076 62.7193 107.72 62.7128 109.634 59.5048L109.697 59.3981C110.086 58.7468 110.634 58.2053 111.29 57.8247L111.473 57.7188C114.404 56.0178 114.345 51.7639 111.367 50.1453C110.663 49.7625 110.078 49.1922 109.678 48.4977L109.604 48.3704C107.736 45.1282 103.059 45.1218 101.182 48.3589L101.096 48.5067C100.697 49.1956 100.116 49.7616 99.4169 50.143ZM105.388 51.5843C104.034 51.5843 102.937 52.6817 102.937 54.0354C102.937 55.3891 104.034 56.4865 105.388 56.4865C106.742 56.4865 107.839 55.3891 107.839 54.0354C107.839 52.6817 106.742 51.5843 105.388 51.5843Z" fill="#E7F7FF"/>
<path d="M192.573 36.6462L192.573 13.6383L207.9 29.4992L207.9 52.0888L192.573 36.6462Z" fill="#E7F7FF"/>
<path d="M224.475 36.7552L224.475 13.7473L209.149 29.6082L209.149 52.1978L224.475 36.7552Z" fill="#E7F7FF"/>
<path d="M192.757 70.3624L192.758 93.3702L208.084 77.5093L208.084 54.9197L192.757 70.3624Z" fill="#E7F7FF"/>
<path d="M224.314 70.2534L224.314 93.2612L208.987 77.4003L208.987 54.8107L224.314 70.2534Z" fill="#E7F7FF"/>
<path d="M191.099 69.536L168.091 69.536L183.952 54.2094L206.541 54.2094L191.099 69.536Z" fill="#E7F7FF"/>
<path d="M191.879 37.72L168.871 37.72L184.732 53.0466L207.321 53.0466L191.879 37.72Z" fill="#E7F7FF"/>
<path d="M226.007 69.6223L249.015 69.6223L233.154 54.2957L210.564 54.2957L226.007 69.6223Z" fill="#E7F7FF"/>
<path d="M226.071 37.5464L249.079 37.5464L233.218 52.873L210.628 52.873L226.071 37.5464Z" fill="#E7F7FF"/>
<path fill-rule="evenodd" clip-rule="evenodd" d="M165.102 59.8269V59.3762C165.102 59.1989 165.087 59.0251 165.058 58.856C163.996 58.2989 163.128 57.4225 162.581 56.3545C162.402 56.3222 162.219 56.3053 162.031 56.3053H161.101C159.638 56.3053 158.453 55.1196 158.453 53.657C158.453 52.1944 159.638 51.0088 161.101 51.0088H162.059C162.259 51.0088 162.455 50.9895 162.644 50.9526C163.19 49.9447 164.026 49.1167 165.04 48.5803C165.08 48.3819 165.102 48.1765 165.102 47.9661V47.5435C165.102 46.0965 166.275 44.9234 167.722 44.9234C169.169 44.9234 170.342 46.0965 170.342 47.5435V47.9661C170.342 48.1648 170.361 48.3591 170.397 48.5471C171.444 49.0843 172.305 49.9301 172.863 50.9642C173.032 50.9935 173.207 51.0088 173.384 51.0088H174.286C175.749 51.0088 176.934 52.1944 176.934 53.657C176.934 55.1196 175.749 56.3053 174.286 56.3053H173.413C173.247 56.3053 173.084 56.3185 172.925 56.3438C172.368 57.4376 171.474 58.3311 170.38 58.8882C170.355 59.0471 170.342 59.2101 170.342 59.3762V59.8269C170.342 61.274 169.169 62.447 167.722 62.447C166.275 62.447 165.102 61.274 165.102 59.8269ZM167.675 51.3799C168.864 51.3799 169.827 52.3433 169.827 53.5318C169.827 54.7202 168.864 55.6837 167.675 55.6837C166.487 55.6837 165.523 54.7202 165.523 53.5318C165.523 52.3433 166.487 51.3799 167.675 51.3799Z" fill="#E7F7FF"/>
<path fill-rule="evenodd" clip-rule="evenodd" d="M206.025 20.2241V19.7734C206.025 19.596 206.01 19.422 205.981 19.2529C204.919 18.6958 204.051 17.8196 203.504 16.7517C203.326 16.7194 203.142 16.7025 202.954 16.7025H202.024C200.562 16.7025 199.376 15.5169 199.376 14.0543C199.376 12.5917 200.562 11.406 202.024 11.406H202.982C203.182 11.406 203.378 11.3867 203.567 11.3498C204.113 10.3418 204.949 9.51369 205.963 8.97719C206.003 8.77891 206.025 8.5736 206.025 8.36331V7.94072C206.025 6.49368 207.198 5.32063 208.645 5.32063C210.092 5.32063 211.265 6.49368 211.265 7.94072V8.36331C211.265 8.5619 211.284 8.75604 211.32 8.94402C212.367 9.48127 213.229 10.3271 213.786 11.3615C213.955 11.3907 214.13 11.406 214.308 11.406H215.209C216.672 11.406 217.857 12.5917 217.857 14.0543C217.857 15.5169 216.672 16.7025 215.209 16.7025H214.336C214.17 16.7025 214.007 16.7157 213.848 16.7411C213.291 17.8346 212.397 18.7281 211.303 19.2851C211.278 19.4441 211.265 19.6072 211.265 19.7734V20.2241C211.265 21.6712 210.092 22.8442 208.645 22.8442C207.198 22.8442 206.025 21.6712 206.025 20.2241ZM208.598 11.7768C209.787 11.7768 210.75 12.7402 210.75 13.9287C210.75 15.1172 209.787 16.0806 208.598 16.0806C207.41 16.0806 206.446 15.1172 206.446 13.9287C206.446 12.7402 207.41 11.7768 208.598 11.7768Z" fill="#E7F7FF"/>
<path fill-rule="evenodd" clip-rule="evenodd" d="M246.948 59.8269V59.3762C246.948 59.1988 246.933 59.025 246.904 58.8559C245.842 58.2988 244.974 57.4225 244.428 56.3545C244.249 56.3222 244.065 56.3053 243.877 56.3053H242.948C241.485 56.3053 240.299 55.1196 240.299 53.657C240.299 52.1944 241.485 51.0088 242.948 51.0088H243.905C244.106 51.0088 244.301 50.9894 244.491 50.9526C245.037 49.9448 245.872 49.1168 246.886 48.5804C246.927 48.382 246.948 48.1765 246.948 47.9661V47.5435C246.948 46.0965 248.121 44.9234 249.568 44.9234C251.015 44.9234 252.188 46.0965 252.188 47.5435V47.9661C252.188 48.1648 252.207 48.359 252.244 48.5471C253.29 49.0842 254.152 49.93 254.709 50.9642C254.879 50.9935 255.053 51.0088 255.231 51.0088H256.133C257.595 51.0088 258.781 52.1944 258.781 53.657C258.781 55.1196 257.595 56.3053 256.133 56.3053H255.259C255.093 56.3053 254.93 56.3185 254.772 56.3438C254.214 57.4376 253.321 58.3312 252.227 58.8883C252.202 59.0472 252.188 59.2101 252.188 59.3762V59.8269C252.188 61.274 251.015 62.447 249.568 62.447C248.121 62.447 246.948 61.274 246.948 59.8269ZM249.522 51.3799C250.71 51.3799 251.674 52.3433 251.674 53.5318C251.674 54.7202 250.71 55.6837 249.522 55.6837C248.334 55.6837 247.37 54.7202 247.37 53.5318C247.37 52.3433 248.334 51.3799 249.522 51.3799Z" fill="#E7F7FF"/>
<path fill-rule="evenodd" clip-rule="evenodd" d="M206.025 98.1103V97.6596C206.025 97.4822 206.01 97.3083 205.981 97.1391C204.919 96.5821 204.051 95.7058 203.504 94.6379C203.326 94.6056 203.142 94.5887 202.954 94.5887H202.024C200.562 94.5887 199.376 93.403 199.376 91.9404C199.376 90.4778 200.562 89.2922 202.024 89.2922H202.982C203.182 89.2922 203.378 89.2729 203.567 89.236C204.113 88.228 204.949 87.4 205.963 86.8635C206.003 86.6652 206.025 86.4598 206.025 86.2495V85.8269C206.025 84.3799 207.198 83.2068 208.645 83.2068C210.092 83.2068 211.265 84.3798 211.265 85.8269V86.2495C211.265 86.4481 211.284 86.6423 211.32 86.8303C212.367 87.3675 213.229 88.2134 213.786 89.2476C213.955 89.2769 214.13 89.2922 214.308 89.2922H215.209C216.672 89.2922 217.857 90.4778 217.857 91.9404C217.857 93.403 216.672 94.5887 215.209 94.5887H214.336C214.17 94.5887 214.007 94.6019 213.848 94.6272C213.291 95.7209 212.397 96.6144 211.303 97.1714C211.278 97.3304 211.265 97.4934 211.265 97.6595V98.1103C211.265 99.5574 210.092 100.73 208.645 100.73C207.198 100.73 206.025 99.5574 206.025 98.1103ZM208.598 89.6631C209.787 89.6631 210.75 90.6265 210.75 91.815C210.75 93.0034 209.787 93.9669 208.598 93.9669C207.41 93.9669 206.446 93.0034 206.446 91.815C206.446 90.6265 207.41 89.6631 208.598 89.6631Z" fill="#E7F7FF"/>
</g>
<defs>
<filter id="filter0_f_352_574" x="0" y="0" width="419.243" height="108" filterUnits="userSpaceOnUse" color-interpolation-filters="sRGB">
<feFlood flood-opacity="0" result="BackgroundImageFix"/>
<feBlend mode="normal" in="SourceGraphic" in2="BackgroundImageFix" result="shape"/>
<feGaussianBlur stdDeviation="2" result="effect1_foregroundBlur_352_574"/>
</filter>
<linearGradient id="paint0_linear_352_574" x1="274.575" y1="47.645" x2="274.575" y2="6.46851" gradientUnits="userSpaceOnUse">
<stop stop-color="#F7FDFF"/>
<stop offset="1" stop-color="#E7F7FF"/>
</linearGradient>
<linearGradient id="paint1_linear_352_574" x1="276.781" y1="62.8238" x2="276.781" y2="104" gradientUnits="userSpaceOnUse">
<stop stop-color="#F7FDFF"/>
<stop offset="1" stop-color="#E7F7FF"/>
</linearGradient>
<linearGradient id="paint2_linear_352_574" x1="356.526" y1="46.497" x2="356.526" y2="5.32056" gradientUnits="userSpaceOnUse">
<stop stop-color="#F7FDFF"/>
<stop offset="1" stop-color="#E7F7FF"/>
</linearGradient>
<linearGradient id="paint3_linear_352_574" x1="356.526" y1="61.6758" x2="356.526" y2="102.852" gradientUnits="userSpaceOnUse">
<stop stop-color="#F7FDFF"/>
<stop offset="1" stop-color="#E7F7FF"/>
</linearGradient>
<linearGradient id="paint4_linear_352_574" x1="64.041" y1="60.3553" x2="64.041" y2="101.532" gradientUnits="userSpaceOnUse">
<stop stop-color="#F7FDFF"/>
<stop offset="1" stop-color="#E7F7FF"/>
</linearGradient>
<linearGradient id="paint5_linear_352_574" x1="66.2465" y1="45.1764" x2="66.2465" y2="4" gradientUnits="userSpaceOnUse">
<stop stop-color="#F7FDFF"/>
<stop offset="1" stop-color="#E7F7FF"/>
</linearGradient>
<linearGradient id="paint6_linear_352_574" x1="145.992" y1="61.5032" x2="145.992" y2="102.68" gradientUnits="userSpaceOnUse">
<stop stop-color="#F7FDFF"/>
<stop offset="1" stop-color="#E7F7FF"/>
</linearGradient>
<linearGradient id="paint7_linear_352_574" x1="145.992" y1="46.3244" x2="145.992" y2="5.14795" gradientUnits="userSpaceOnUse">
<stop stop-color="#F7FDFF"/>
<stop offset="1" stop-color="#E7F7FF"/>
</linearGradient>
</defs>
</svg>
