<svg width="412" height="100" viewBox="0 0 412 100" fill="none" xmlns="http://www.w3.org/2000/svg">
<path d="M280.083 43.6449H278.479C272.362 43.6449 260.028 34.2175 255.816 33.5156C251.605 32.8136 253.611 33.017 247.995 32.2134C242.379 31.4098 237.666 26.7957 236.864 22.5854C236.062 18.3752 236.162 17.2708 236.864 14.1622C237.566 11.0536 240.675 4.73622 248.797 4.73622H251.404C254.613 4.73622 259.392 7.16337 261.131 11.555C262.047 13.8673 262.655 16.2271 261.833 18.5744C261.131 20.5799 259.928 21.6829 258.323 22.5854C256.719 23.4879 255.115 23.7887 253.109 22.9865C251.116 22.1894 249.866 18.6881 247.092 18.2735C246.202 18.1404 245.618 18.4512 244.886 18.9769C243.869 19.7082 243.82 21.2863 244.184 22.4852C244.886 24.7915 249.734 27.4993 253.911 28.7037C257.335 29.691 263.237 29.6048 263.237 29.6048C263.237 29.6048 262.234 26.5962 263.638 25.4935C265.042 24.3907 266.747 23.7901 268.953 24.591C271.159 25.3918 275.07 30.6075 273.766 31.8109C272.462 33.0142 272.663 30.407 269.454 29.6048C266.245 28.8026 265.644 30.8081 266.646 31.8109C267.649 32.8136 269.053 35.1203 270.958 35.8219C272.864 36.5235 275.17 37.6255 277.677 36.7244C279.292 36.1437 279.96 35.1149 280.585 33.5156C282.062 29.7322 277.175 29.5031 274.869 27.499C273.657 26.4459 273.365 24.5896 274.267 23.5882C275.17 22.5868 276.975 22.1594 278.178 23.1885C279.381 24.2176 282.791 27.9018 284.696 28.7037C286.601 29.5056 288.404 29.5486 290.512 28.7037C293.142 27.6498 294.022 25.694 295.225 23.1885C295.937 21.7058 296.128 20.4796 296.027 18.6746C295.817 14.8843 292.984 10.6591 289.209 11.0536C287.502 11.232 286.342 11.6042 285.899 13.2625C285.097 16.268 289.911 17.2736 290.813 18.9769C291.716 20.6802 291.264 22.1862 290.512 23.1885C289.008 25.1926 287.203 25.1954 284.696 24.8932C282.189 24.5909 279.832 22.7049 278.178 19.9796C275.862 16.163 275.972 12.1567 277.677 8.94803C279.178 6.12208 279.382 5.93952 282.891 4.03506C286.401 2.1306 289.409 2.22951 293.019 2.93264C296.629 3.63577 301.677 6.81601 303.749 11.8572C305.43 15.9503 305.153 19.4783 303.147 22.1857C301.142 24.8932 284.195 43.6449 280.083 43.6449Z" fill="url(#paint0_linear_96_12891)" fill-opacity="0.5"/>
<path d="M282.29 58.8237H280.685C274.568 58.8237 262.234 68.2511 258.023 68.953C253.811 69.6549 255.817 69.4516 250.201 70.2552C244.586 71.0588 239.873 75.6729 239.07 79.8831C238.268 84.0934 238.368 85.1978 239.07 88.3064C239.772 91.4149 242.881 97.7323 251.003 97.7323H253.611C256.819 97.7323 261.599 95.3052 263.337 90.9135C264.253 88.6013 264.861 86.2415 264.039 83.8942C263.337 81.8887 262.134 80.7856 260.53 79.8831C258.925 78.9806 257.321 78.6798 255.315 79.482C253.322 80.2792 252.072 83.7804 249.299 84.195C248.408 84.3282 247.824 84.0174 247.093 83.4917C246.075 82.7603 246.026 81.1823 246.391 79.9834C247.093 77.6771 251.94 74.9693 256.117 73.7649C259.542 72.7776 265.443 72.8638 265.443 72.8638C265.443 72.8638 264.44 75.8724 265.844 76.9751C267.248 78.0778 268.953 78.6784 271.159 77.8776C273.365 77.0768 277.276 71.861 275.972 70.6577C274.669 69.4544 274.869 72.0616 271.66 72.8638C268.451 73.666 267.85 71.6605 268.852 70.6577C269.855 69.6549 271.259 67.3482 273.164 66.6466C275.07 65.945 277.376 64.8431 279.883 65.7442C281.499 66.3249 282.167 67.3537 282.791 68.953C284.268 72.7363 279.382 72.9655 277.075 74.9696C275.863 76.0227 275.571 77.879 276.473 78.8804C277.376 79.8817 279.181 80.3092 280.384 79.2801C281.588 78.251 284.997 74.5667 286.902 73.7649C288.808 72.963 290.61 72.92 292.718 73.7649C295.348 74.8188 296.228 76.7746 297.431 79.2801C298.143 80.7627 298.334 81.989 298.234 83.7939C298.023 87.5842 295.19 91.8095 291.415 91.4149C289.708 91.2365 288.548 90.8644 288.106 89.206C287.303 86.2006 292.117 85.195 293.019 83.4917C293.922 81.7884 293.47 80.2824 292.718 79.2801C291.214 77.276 289.409 77.2731 286.902 77.5754C284.395 77.8776 282.038 79.7637 280.384 82.4889C278.068 86.3056 278.178 90.3119 279.883 93.5205C281.384 96.3465 281.588 96.529 285.097 98.4335C288.607 100.338 291.615 100.239 295.225 99.5359C298.835 98.8328 303.883 95.6526 305.955 90.6113C307.637 86.5182 307.359 82.9903 305.353 80.2828C303.348 77.5754 286.401 58.8237 282.29 58.8237Z" fill="url(#paint1_linear_96_12891)" fill-opacity="0.5"/>
<path d="M343.017 42.4969H344.622C350.738 42.4969 363.072 33.0695 367.284 32.3676C371.496 31.6656 369.49 31.869 375.106 31.0654C380.721 30.2618 385.434 25.6476 386.236 21.4374C387.038 17.2272 386.938 16.1228 386.236 13.0142C385.534 9.90563 382.426 3.58821 374.303 3.58821H371.696C368.487 3.58821 363.708 6.01536 361.969 10.407C361.054 12.7193 360.446 15.0791 361.267 17.4264C361.969 19.4319 363.173 20.5349 364.777 21.4374C366.381 22.3399 367.986 22.6407 369.991 21.8385C371.984 21.0414 373.235 17.5401 376.008 17.1255C376.899 16.9924 377.483 17.3032 378.214 17.8289C379.232 18.5602 379.281 20.1383 378.916 21.3371C378.214 23.6435 373.367 26.3513 369.189 27.5557C365.765 28.5429 359.863 28.4568 359.863 28.4568C359.863 28.4568 360.866 25.4482 359.462 24.3454C358.059 23.2427 356.354 22.6421 354.148 23.443C351.942 24.2438 348.031 29.4595 349.335 30.6629C350.638 31.8662 350.437 29.259 353.646 28.4568C356.855 27.6546 357.457 29.6601 356.454 30.6629C355.451 31.6656 354.048 33.9723 352.142 34.6739C350.237 35.3755 347.931 36.4775 345.424 35.5764C343.808 34.9957 343.14 33.9668 342.516 32.3676C341.039 28.5842 345.925 28.3551 348.231 26.351C349.443 25.2979 349.736 23.4415 348.833 22.4402C347.931 21.4388 346.126 21.0114 344.922 22.0405C343.719 23.0695 340.31 26.7538 338.404 27.5557C336.499 28.3576 334.697 28.4006 332.588 27.5557C329.959 26.5018 329.079 24.546 327.875 22.0405C327.163 20.5578 326.973 19.3316 327.073 17.5266C327.284 13.7363 330.116 9.51105 333.892 9.90561C335.599 10.084 336.759 10.4562 337.201 12.1145C338.003 15.12 333.19 16.1256 332.287 17.8289C331.385 19.5322 331.836 21.0382 332.588 22.0405C334.092 24.0446 335.898 24.0474 338.404 23.7452C340.911 23.4429 343.269 21.5568 344.922 18.8316C347.238 15.015 347.128 11.0087 345.424 7.80002C343.922 4.97407 343.719 4.79151 340.209 2.88705C336.7 0.982592 333.691 1.0815 330.081 1.78463C326.472 2.48776 321.423 5.668 319.352 10.7092C317.67 14.8023 317.948 18.3303 319.953 21.0377C321.959 23.7452 338.906 42.4969 343.017 42.4969Z" fill="url(#paint2_linear_96_12891)" fill-opacity="0.5"/>
<path d="M343.017 57.6757H344.622C350.738 57.6757 363.072 67.1031 367.284 67.805C371.496 68.507 369.49 68.3036 375.106 69.1072C380.721 69.9109 385.434 74.525 386.236 78.7352C387.038 82.9454 386.938 84.0498 386.236 87.1584C385.534 90.267 382.426 96.5844 374.303 96.5844H371.696C368.487 96.5844 363.708 94.1573 361.969 89.7656C361.054 87.4533 360.446 85.0935 361.267 82.7462C361.969 80.7407 363.173 79.6377 364.777 78.7352C366.381 77.8327 367.986 77.5319 369.991 78.3341C371.984 79.1312 373.235 82.6325 376.008 83.0471C376.899 83.1802 377.483 82.8694 378.214 82.3437C379.232 81.6124 379.281 80.0343 378.916 78.8355C378.214 76.5291 373.367 73.8214 369.189 72.6169C365.765 71.6297 359.863 71.7158 359.863 71.7158C359.863 71.7158 360.866 74.7245 359.462 75.8272C358.059 76.9299 356.354 77.5305 354.148 76.7297C351.942 75.9288 348.031 70.7131 349.335 69.5098C350.638 68.3064 350.437 70.9136 353.646 71.7158C356.855 72.518 357.457 70.5125 356.454 69.5098C355.451 68.507 354.048 66.2003 352.142 65.4987C350.237 64.7971 347.931 63.6951 345.424 64.5962C343.808 65.1769 343.14 66.2058 342.516 67.805C341.039 71.5884 345.925 71.8175 348.231 73.8216C349.443 74.8747 349.736 76.7311 348.833 77.7324C347.931 78.7338 346.126 79.1612 344.922 78.1321C343.719 77.1031 340.31 73.4188 338.404 72.6169C336.499 71.815 334.697 71.772 332.588 72.6169C329.959 73.6708 329.079 75.6266 327.875 78.1321C327.163 79.6148 326.973 80.841 327.073 82.646C327.284 86.4363 330.116 90.6616 333.892 90.267C335.599 90.0886 336.759 89.7164 337.201 88.0581C338.003 85.0526 333.19 84.047 332.287 82.3437C331.385 80.6405 331.836 79.1344 332.588 78.1321C334.092 76.128 335.898 76.1252 338.404 76.4274C340.911 76.7297 343.269 78.6158 344.922 81.341C347.238 85.1576 347.128 89.164 345.424 92.3726C343.922 95.1985 343.719 95.3811 340.209 97.2856C336.7 99.19 333.691 99.0911 330.081 98.388C326.472 97.6848 321.423 94.5046 319.352 89.4634C317.67 85.3703 317.948 81.8423 319.953 79.1349C321.959 76.4274 338.906 57.6757 343.017 57.6757Z" fill="url(#paint3_linear_96_12891)" fill-opacity="0.5"/>
<path fill-rule="evenodd" clip-rule="evenodd" d="M373.702 61.0558L352.469 49.6452L373.702 38.2836L382.131 42.8118L390.095 38.5505L411.243 49.9121L390.095 61.3227L381.634 56.7761L373.702 61.0558ZM386.921 53.9237L390.29 55.6085L401.292 50.0843L390.29 44.5838L387.767 45.8398L394.851 49.6452L386.921 53.9237ZM382.345 48.5396L384.9 49.817L381.811 51.3683L379.243 50.0843L382.345 48.5396ZM376.7 45.7176L368.861 49.9121L376.517 54.0261L373.898 55.3412L362.851 49.817L373.898 44.3164L376.7 45.7176Z" fill="#F7FDFF"/>
<path d="M306.418 44.0431C310.674 39.5955 310.831 35.4263 310.258 32.776C309.844 30.8637 307.96 29.8663 306.004 29.8663H304.798C302.24 29.8663 300.166 31.9404 300.166 34.4988V34.6462C300.166 37.1233 298.158 39.1314 295.681 39.1314C293.204 39.1314 291.196 41.1394 291.196 43.6165V44.4211C291.196 46.485 292.416 48.3895 294.465 48.6337C297.474 48.9921 302.11 48.5457 306.418 44.0431Z" fill="#E7F7FF"/>
<path d="M306.418 56.1678C310.674 60.6153 310.831 64.7845 310.258 67.4348C309.844 69.3471 307.96 70.3445 306.004 70.3445H304.798C302.24 70.3445 300.166 68.2704 300.166 65.712V65.5646C300.166 63.0875 298.158 61.0795 295.681 61.0795C293.204 61.0795 291.196 59.0714 291.196 56.5943V55.7897C291.196 53.7259 292.416 51.8213 294.465 51.5771C297.474 51.2187 302.11 51.6651 306.418 56.1678Z" fill="#E7F7FF"/>
<path d="M316.657 56.1678C312.401 60.6153 312.244 64.7845 312.817 67.4348C313.231 69.3471 315.115 70.3445 317.071 70.3445H318.276C320.835 70.3445 322.909 68.2704 322.909 65.712V65.5646C322.909 63.0875 324.917 61.0795 327.394 61.0795C329.871 61.0795 331.879 59.0714 331.879 56.5943V55.7897C331.879 53.7259 330.659 51.8213 328.609 51.5771C325.601 51.2187 320.965 51.6651 316.657 56.1678Z" fill="#E7F7FF"/>
<path d="M316.657 44.0431C312.401 39.5956 312.244 35.4264 312.817 32.7761C313.231 30.8638 315.115 29.8664 317.071 29.8664H318.276C320.835 29.8664 322.909 31.9404 322.909 34.4989V34.6463C322.909 37.1234 324.917 39.1314 327.394 39.1314C329.871 39.1314 331.879 41.1395 331.879 43.6165V44.4212C331.879 46.485 330.659 48.3896 328.609 48.6337C325.601 48.9922 320.965 48.5457 316.657 44.0431Z" fill="#E7F7FF"/>
<path fill-rule="evenodd" clip-rule="evenodd" d="M305.547 46.143C302.573 47.7659 302.514 52.0154 305.441 53.7208L305.624 53.8274C306.275 54.2063 306.819 54.7434 307.207 55.3888L307.283 55.5166C309.206 58.7192 313.85 58.7127 315.764 55.5048L315.828 55.398C316.216 54.7468 316.764 54.2052 317.42 53.8246L317.603 53.7188C320.535 52.0177 320.475 47.7639 317.497 46.1452C316.793 45.7624 316.208 45.1922 315.808 44.4976L315.735 44.3704C313.866 41.1282 309.19 41.1218 307.312 44.3588L307.227 44.5067C306.827 45.1955 306.246 45.7615 305.547 46.143ZM311.518 47.5843C310.164 47.5843 309.067 48.6816 309.067 50.0353C309.067 51.389 310.164 52.4864 311.518 52.4864C312.872 52.4864 313.969 51.389 313.969 50.0353C313.969 48.6816 312.872 47.5843 311.518 47.5843Z" fill="#E7F7FF"/>
<path d="M69.5496 56.3553H67.9451C61.8283 56.3553 49.4944 65.7827 45.2826 66.4846C41.0709 67.1866 43.0767 66.9832 37.4611 67.7868C31.8456 68.5904 27.1326 73.2045 26.3304 77.4148C25.5282 81.625 25.6285 82.7294 26.3305 85.838C27.0325 88.9465 30.1409 95.264 38.2633 95.264H40.8706C44.0794 95.264 48.8587 92.8368 50.5974 88.4452C51.5129 86.1329 52.1209 83.7731 51.2993 81.4258C50.5974 79.4203 49.3941 78.3172 47.7897 77.4148C46.1852 76.5123 44.5808 76.2114 42.5753 77.0136C40.5824 77.8108 39.3321 81.312 36.5587 81.7266C35.6679 81.8598 35.0839 81.549 34.3525 81.0233C33.335 80.2919 33.2858 78.7139 33.6506 77.515C34.3525 75.2087 39.2001 72.5009 43.3774 71.2965C46.8015 70.3092 52.7032 70.3954 52.7032 70.3954C52.7032 70.3954 51.7004 73.404 53.1042 74.5067C54.508 75.6094 56.2127 76.21 58.4189 75.4092C60.625 74.6084 64.5357 69.3926 63.2321 68.1893C61.9285 66.986 62.1292 69.5932 58.9202 70.3954C55.7113 71.1976 55.1097 69.1921 56.1125 68.1893C57.1153 67.1866 58.519 64.8799 60.4244 64.1783C62.3297 63.4767 64.6361 62.3747 67.143 63.2758C68.7586 63.8565 69.4266 64.8853 70.0509 66.4846C71.5278 70.268 66.6416 70.4971 64.3352 72.5012C63.1232 73.5543 62.831 75.4106 63.7335 76.412C64.636 77.4133 66.4411 77.8408 67.6443 76.8117C68.8475 75.7826 72.2569 72.0984 74.1623 71.2965C76.0676 70.4946 77.87 70.4516 79.9783 71.2965C82.6081 72.3504 83.4881 74.3062 84.6913 76.8117C85.4033 78.2943 85.5939 79.5206 85.4936 81.3255C85.283 85.1158 82.4504 89.3411 78.6748 88.9466C76.9677 88.7682 75.8081 88.396 75.3656 86.7377C74.5635 83.7322 79.3767 82.7266 80.2792 81.0233C81.1817 79.32 80.7305 77.814 79.9783 76.8117C78.4742 74.8076 76.6691 74.8048 74.1623 75.107C71.6555 75.4092 69.2979 77.2953 67.6443 80.0205C65.3284 83.8372 65.4383 87.8435 67.143 91.0522C68.6444 93.8781 68.8477 94.0607 72.3574 95.9651C75.8671 97.8696 78.8753 97.7707 82.4852 97.0675C86.095 96.3644 91.1434 93.1842 93.2148 88.1429C94.8965 84.0498 94.6188 80.5219 92.6132 77.8144C90.6077 75.107 73.6609 56.3553 69.5496 56.3553Z" fill="url(#paint4_linear_96_12891)" fill-opacity="0.5"/>
<path d="M71.7551 41.1764H70.1506C64.0337 41.1764 51.6998 31.7491 47.4881 31.0471C43.2764 30.3452 45.2821 30.5485 39.6666 29.7449C34.051 28.9413 29.3381 24.3272 28.5359 20.117C27.7336 15.9068 27.8339 14.8023 28.5359 11.6938C29.2379 8.58519 32.3463 2.26778 40.4687 2.26778H43.076C46.2849 2.26778 51.0641 4.69492 52.8029 9.08658C53.7183 11.3989 54.3263 13.7586 53.5048 16.1059C52.8029 18.1115 51.5995 19.2145 49.9951 20.117C48.3907 21.0195 46.7863 21.3203 44.7807 20.5181C42.7878 19.7209 41.5376 16.2197 38.7641 15.8051C37.8733 15.6719 37.2893 15.9828 36.558 16.5084C35.5404 17.2398 35.4913 18.8179 35.8561 20.0167C36.558 22.3231 41.4055 25.0308 45.5828 26.2353C49.007 27.2225 54.9086 27.1363 54.9086 27.1363C54.9086 27.1363 53.9059 24.1277 55.3097 23.025C56.7134 21.9223 58.4182 21.3217 60.6243 22.1225C62.8304 22.9233 66.7412 28.1391 65.4376 29.3424C64.134 30.5457 64.3346 27.9386 61.1257 27.1363C57.9168 26.3341 57.3152 28.3397 58.3179 29.3424C59.3207 30.3452 60.7245 32.6519 62.6298 33.3535C64.5352 34.0551 66.8415 35.1571 69.3485 34.256C70.9641 33.6753 71.6321 32.6464 72.2564 31.0471C73.7332 27.2638 68.8471 27.0347 66.5406 25.0305C65.3286 23.9774 65.0365 22.1211 65.939 21.1198C66.8414 20.1184 68.6465 19.691 69.8498 20.72C71.053 21.7491 74.4623 25.4334 76.3677 26.2353C78.2731 27.0371 80.0754 27.0802 82.1837 26.2353C84.8135 25.1814 85.6935 23.2255 86.8967 20.72C87.6087 19.2374 87.7993 18.0112 87.699 16.2062C87.4885 12.4159 84.6558 8.19061 80.8802 8.58518C79.1732 8.76357 78.0136 9.13575 77.571 10.7941C76.7689 13.7996 81.5822 14.8051 82.4847 16.5084C83.3871 18.2117 82.9359 19.7178 82.1837 20.72C80.6797 22.7242 78.8745 22.727 76.3677 22.4247C73.8609 22.1225 71.5034 20.2364 69.8498 17.5112C67.5339 13.6946 67.6438 9.68822 69.3485 6.47959C70.8498 3.65363 71.0532 3.47108 74.5628 1.56662C78.0725 -0.337843 81.0808 -0.238936 84.6906 0.464196C88.3005 1.16733 93.3489 4.34756 95.4202 9.3888C97.102 13.4819 96.8242 17.0098 94.8187 19.7173C92.8131 22.4247 75.8663 41.1764 71.7551 41.1764Z" fill="url(#paint5_linear_96_12891)" fill-opacity="0.5"/>
<path d="M132.483 57.5032H134.087C140.204 57.5032 152.538 66.9306 156.75 67.6326C160.962 68.3345 158.956 68.1311 164.571 68.9348C170.187 69.7384 174.9 74.3525 175.702 78.5627C176.504 82.7729 176.404 83.8774 175.702 86.9859C175 90.0945 171.892 96.4119 163.769 96.4119H161.162C157.953 96.4119 153.174 93.9848 151.435 89.5931C150.52 87.2808 149.912 84.9211 150.733 82.5738C151.435 80.5682 152.638 79.4652 154.243 78.5627C155.847 77.6602 157.452 77.3594 159.457 78.1616C161.45 78.9587 162.7 82.46 165.474 82.8746C166.365 83.0078 166.949 82.6969 167.68 82.1713C168.698 81.4399 168.747 79.8618 168.382 78.663C167.68 76.3566 162.833 73.6489 158.655 72.4444C155.231 71.4572 149.329 71.5433 149.329 71.5433C149.329 71.5433 150.332 74.552 148.928 75.6547C147.525 76.7574 145.82 77.358 143.614 76.5572C141.408 75.7564 137.497 70.5406 138.8 69.3373C140.104 68.1339 139.903 70.7411 143.112 71.5433C146.321 72.3456 146.923 70.34 145.92 69.3373C144.917 68.3345 143.514 66.0278 141.608 65.3262C139.703 64.6246 137.397 63.5226 134.89 64.4237C133.274 65.0044 132.606 66.0333 131.982 67.6326C130.505 71.4159 135.391 71.645 137.697 73.6492C138.909 74.7023 139.202 76.5586 138.299 77.5599C137.397 78.5613 135.592 78.9887 134.388 77.9596C133.185 76.9306 129.776 73.2463 127.87 72.4444C125.965 71.6426 124.163 71.5995 122.054 72.4444C119.425 73.4983 118.545 75.4541 117.341 77.9596C116.629 79.4423 116.439 80.6685 116.539 82.4735C116.75 86.2638 119.582 90.4891 123.358 90.0945C125.065 89.9161 126.224 89.5439 126.667 87.8856C127.469 84.8801 122.656 83.8745 121.753 82.1713C120.851 80.468 121.302 78.9619 122.054 77.9596C123.558 75.9555 125.364 75.9527 127.87 76.2549C130.377 76.5572 132.735 78.4433 134.388 81.1685C136.704 84.9851 136.594 88.9915 134.89 92.2001C133.388 95.0261 133.185 95.2086 129.675 97.1131C126.166 99.0175 123.157 98.9186 119.547 98.2155C115.938 97.5124 110.889 94.3321 108.818 89.2909C107.136 85.1978 107.414 81.6698 109.419 78.9624C111.425 76.2549 128.372 57.5032 132.483 57.5032Z" fill="url(#paint6_linear_96_12891)" fill-opacity="0.5"/>
<path d="M132.483 42.3244H134.087C140.204 42.3244 152.538 32.897 156.75 32.1951C160.962 31.4931 158.956 31.6965 164.571 30.8929C170.187 30.0893 174.9 25.4752 175.702 21.2649C176.504 17.0547 176.404 15.9503 175.702 12.8417C175 9.73314 171.892 3.41572 163.769 3.41572H161.162C157.953 3.41572 153.174 5.84287 151.435 10.2345C150.52 12.5468 149.912 14.9066 150.733 17.2539C151.435 19.2594 152.638 20.3624 154.243 21.2649C155.847 22.1674 157.452 22.4683 159.457 21.666C161.45 20.8689 162.7 17.3677 165.474 16.953C166.365 16.8199 166.949 17.1307 167.68 17.6564C168.698 18.3878 168.747 19.9658 168.382 21.1647C167.68 23.471 162.833 26.1788 158.655 27.3832C155.231 28.3705 149.329 28.2843 149.329 28.2843C149.329 28.2843 150.332 25.2757 148.928 24.173C147.525 23.0702 145.82 22.4696 143.614 23.2705C141.408 24.0713 137.497 29.2871 138.8 30.4904C140.104 31.6937 139.903 29.0865 143.112 28.2843C146.321 27.4821 146.923 29.4876 145.92 30.4904C144.917 31.4931 143.514 33.7998 141.608 34.5014C139.703 35.203 137.397 36.305 134.89 35.4039C133.274 34.8232 132.606 33.7944 131.982 32.1951C130.505 28.4117 135.391 28.1826 137.697 26.1785C138.909 25.1254 139.202 23.2691 138.299 22.2677C137.397 21.2663 135.592 20.8389 134.388 21.868C133.185 22.8971 129.776 26.5813 127.87 27.3832C125.965 28.1851 124.163 28.2281 122.054 27.3832C119.425 26.3293 118.545 24.3735 117.341 21.868C116.629 20.3854 116.439 19.1591 116.539 17.3541C116.75 13.5638 119.582 9.33856 123.358 9.73313C125.065 9.91152 126.224 10.2837 126.667 11.942C127.469 14.9475 122.656 15.9531 121.753 17.6564C120.851 19.3597 121.302 20.8657 122.054 21.868C123.558 23.8721 125.364 23.8749 127.87 23.5727C130.377 23.2705 132.735 21.3844 134.388 18.6591C136.704 14.8425 136.594 10.8362 134.89 7.62754C133.388 4.80158 133.185 4.61903 129.675 2.71457C126.166 0.810106 123.157 0.909014 119.547 1.61214C115.938 2.31528 110.889 5.49551 108.818 10.5368C107.136 14.6298 107.414 18.1578 109.419 20.8652C111.425 23.5727 128.372 42.3244 132.483 42.3244Z" fill="url(#paint7_linear_96_12891)" fill-opacity="0.5"/>
<path fill-rule="evenodd" clip-rule="evenodd" d="M21.2332 60.2111L0 48.8005L21.2332 37.4389L29.6616 41.9669L37.6256 37.7055L58.774 49.0671L37.6256 60.4777L29.1655 55.9312L21.2332 60.2111ZM34.4526 53.0786L37.8209 54.763L48.8236 49.2388L37.8209 43.7383L35.2976 44.9947L42.3816 48.8005L34.4526 53.0786ZM29.8757 47.6944L32.4311 48.9719L29.342 50.5229L26.7741 49.2388L29.8757 47.6944ZM24.2313 44.8726L16.3924 49.0671L24.0478 53.181L21.4285 54.4961L10.3816 48.9719L21.4285 43.4714L24.2313 44.8726Z" fill="#F7FDFF"/>
<path d="M96.288 44.0431C100.544 39.5955 100.7 35.4263 100.127 32.776C99.714 30.8637 97.8297 29.8663 95.8733 29.8663H94.6682C92.1097 29.8663 90.0357 31.9404 90.0357 34.4988V34.6462C90.0357 37.1233 88.0276 39.1314 85.5505 39.1314C83.0735 39.1314 81.0654 41.1394 81.0654 43.6165V44.4211C81.0654 46.485 82.2858 48.3895 84.3352 48.6337C87.344 48.9921 91.9797 48.5457 96.288 44.0431Z" fill="#E7F7FF"/>
<path d="M96.288 56.1678C100.544 60.6153 100.7 64.7845 100.127 67.4348C99.714 69.3471 97.8297 70.3445 95.8733 70.3445H94.6682C92.1097 70.3445 90.0357 68.2704 90.0357 65.712V65.5646C90.0357 63.0875 88.0276 61.0795 85.5505 61.0795C83.0735 61.0795 81.0654 59.0714 81.0654 56.5943V55.7897C81.0654 53.7259 82.2858 51.8213 84.3352 51.5771C87.344 51.2187 91.9797 51.6651 96.288 56.1678Z" fill="#E7F7FF"/>
<path d="M106.526 56.1678C102.271 60.6153 102.114 64.7845 102.687 67.4348C103.1 69.3471 104.985 70.3445 106.941 70.3445H108.146C110.705 70.3445 112.779 68.2704 112.779 65.712V65.5646C112.779 63.0875 114.787 61.0795 117.264 61.0795C119.741 61.0795 121.749 59.0714 121.749 56.5943V55.7897C121.749 53.7259 120.529 51.8213 118.479 51.5771C115.47 51.2187 110.835 51.6651 106.526 56.1678Z" fill="#E7F7FF"/>
<path d="M106.526 44.0431C102.271 39.5956 102.114 35.4264 102.687 32.7761C103.1 30.8638 104.985 29.8664 106.941 29.8664H108.146C110.705 29.8664 112.779 31.9404 112.779 34.4989V34.6463C112.779 37.1234 114.787 39.1314 117.264 39.1314C119.741 39.1314 121.749 41.1395 121.749 43.6165V44.4212C121.749 46.485 120.529 48.3896 118.479 48.6337C115.47 48.9922 110.835 48.5457 106.526 44.0431Z" fill="#E7F7FF"/>
<path fill-rule="evenodd" clip-rule="evenodd" d="M95.4169 46.143C92.4428 47.7659 92.3834 52.0154 95.311 53.7208L95.494 53.8274C96.1445 54.2063 96.6887 54.7434 97.0763 55.3888L97.153 55.5166C99.0758 58.7192 103.72 58.7127 105.634 55.5048L105.697 55.398C106.086 54.7468 106.634 54.2052 107.29 53.8246L107.473 53.7188C110.404 52.0177 110.345 47.7639 107.367 46.1452C106.663 45.7624 106.078 45.1922 105.678 44.4976L105.604 44.3704C103.736 41.1282 99.0594 41.1218 97.1821 44.3588L97.0963 44.5067C96.6968 45.1955 96.1159 45.7615 95.4169 46.143ZM101.388 47.5843C100.034 47.5843 98.937 48.6816 98.937 50.0353C98.937 51.389 100.034 52.4864 101.388 52.4864C102.742 52.4864 103.839 51.389 103.839 50.0353C103.839 48.6816 102.742 47.5843 101.388 47.5843Z" fill="#E7F7FF"/>
<path d="M188.573 32.6462L188.573 9.63832L203.9 25.4992L203.9 48.0888L188.573 32.6462Z" fill="#E7F7FF"/>
<path d="M220.475 32.7552L220.475 9.74733L205.149 25.6082L205.149 48.1978L220.475 32.7552Z" fill="#E7F7FF"/>
<path d="M188.757 66.3624L188.758 89.3702L204.084 73.5093L204.084 50.9197L188.757 66.3624Z" fill="#E7F7FF"/>
<path d="M220.314 66.2534L220.314 89.2612L204.987 73.4003L204.987 50.8107L220.314 66.2534Z" fill="#E7F7FF"/>
<path d="M187.099 65.5359L164.091 65.5359L179.952 50.2093L202.541 50.2093L187.099 65.5359Z" fill="#E7F7FF"/>
<path d="M187.879 33.7199L164.871 33.7199L180.732 49.0465L203.321 49.0465L187.879 33.7199Z" fill="#E7F7FF"/>
<path d="M222.007 65.6222L245.014 65.6222L229.153 50.2956L206.564 50.2956L222.007 65.6222Z" fill="#E7F7FF"/>
<path d="M222.071 33.5464L245.078 33.5464L229.218 48.873L206.628 48.873L222.071 33.5464Z" fill="#E7F7FF"/>
<path fill-rule="evenodd" clip-rule="evenodd" d="M161.102 55.8269V55.3762C161.102 55.1989 161.087 55.0251 161.058 54.856C159.996 54.2989 159.128 53.4225 158.581 52.3545C158.402 52.3222 158.219 52.3053 158.031 52.3053H157.101C155.638 52.3053 154.453 51.1196 154.453 49.657C154.453 48.1944 155.638 47.0088 157.101 47.0088H158.059C158.259 47.0088 158.455 46.9895 158.644 46.9526C159.19 45.9447 160.026 45.1167 161.04 44.5803C161.08 44.3819 161.102 44.1765 161.102 43.9661V43.5435C161.102 42.0965 162.275 40.9234 163.722 40.9234C165.169 40.9234 166.342 42.0965 166.342 43.5435V43.9661C166.342 44.1648 166.361 44.3591 166.397 44.5472C167.444 45.0843 168.305 45.9301 168.863 46.9642C169.032 46.9935 169.207 47.0088 169.384 47.0088H170.286C171.749 47.0088 172.934 48.1944 172.934 49.657C172.934 51.1196 171.749 52.3053 170.286 52.3053H169.413C169.247 52.3053 169.084 52.3185 168.925 52.3438C168.368 53.4376 167.474 54.3311 166.38 54.8882C166.355 55.0471 166.342 55.2101 166.342 55.3762V55.8269C166.342 57.274 165.169 58.447 163.722 58.447C162.275 58.447 161.102 57.274 161.102 55.8269ZM163.675 47.3799C164.864 47.3799 165.827 48.3433 165.827 49.5318C165.827 50.7202 164.864 51.6837 163.675 51.6837C162.487 51.6837 161.523 50.7202 161.523 49.5318C161.523 48.3433 162.487 47.3799 163.675 47.3799Z" fill="#E7F7FF"/>
<path fill-rule="evenodd" clip-rule="evenodd" d="M202.025 16.2242V15.7734C202.025 15.596 202.01 15.4221 201.981 15.2529C200.919 14.6959 200.051 13.8197 199.504 12.7518C199.326 12.7195 199.142 12.7026 198.954 12.7026H198.024C196.562 12.7026 195.376 11.5169 195.376 10.0543C195.376 8.59173 196.562 7.40606 198.024 7.40606H198.982C199.182 7.40606 199.378 7.38675 199.567 7.34989C200.113 6.34187 200.949 5.51376 201.963 4.97725C202.003 4.77897 202.025 4.57366 202.025 4.36337V3.94078C202.025 2.49374 203.198 1.32069 204.645 1.32069C206.092 1.32069 207.265 2.49374 207.265 3.94078V4.36337C207.265 4.56196 207.284 4.7561 207.32 4.94408C208.367 5.48133 209.229 6.32721 209.786 7.36152C209.955 7.3908 210.13 7.40606 210.308 7.40606H211.209C212.672 7.40606 213.857 8.59173 213.857 10.0543C213.857 11.5169 212.672 12.7026 211.209 12.7026H210.336C210.17 12.7026 210.007 12.7158 209.848 12.7411C209.291 13.8347 208.397 14.7282 207.303 15.2852C207.278 15.4442 207.265 15.6073 207.265 15.7734V16.2242C207.265 17.6712 206.092 18.8443 204.645 18.8443C203.198 18.8443 202.025 17.6712 202.025 16.2242ZM204.598 7.77684C205.787 7.77684 206.75 8.74028 206.75 9.92876C206.75 11.1172 205.787 12.0807 204.598 12.0807C203.41 12.0807 202.446 11.1172 202.446 9.92876C202.446 8.74028 203.41 7.77684 204.598 7.77684Z" fill="#E7F7FF"/>
<path fill-rule="evenodd" clip-rule="evenodd" d="M242.948 55.8269V55.3762C242.948 55.1988 242.933 55.025 242.904 54.8559C241.842 54.2988 240.974 53.4225 240.428 52.3545C240.249 52.3222 240.065 52.3053 239.877 52.3053H238.948C237.485 52.3053 236.299 51.1196 236.299 49.657C236.299 48.1944 237.485 47.0088 238.948 47.0088H239.905C240.106 47.0088 240.301 46.9894 240.491 46.9526C241.037 45.9448 241.872 45.1168 242.886 44.5804C242.927 44.382 242.948 44.1765 242.948 43.9661V43.5435C242.948 42.0965 244.121 40.9234 245.568 40.9234C247.015 40.9234 248.188 42.0965 248.188 43.5435V43.9661C248.188 44.1648 248.207 44.359 248.244 44.5471C249.29 45.0842 250.152 45.93 250.709 46.9642C250.879 46.9935 251.053 47.0088 251.231 47.0088H252.133C253.595 47.0088 254.781 48.1944 254.781 49.657C254.781 51.1196 253.595 52.3053 252.133 52.3053H251.259C251.093 52.3053 250.93 52.3185 250.772 52.3438C250.214 53.4376 249.321 54.3312 248.227 54.8883C248.202 55.0472 248.188 55.2101 248.188 55.3762V55.8269C248.188 57.274 247.015 58.447 245.568 58.447C244.121 58.447 242.948 57.274 242.948 55.8269ZM245.522 47.3799C246.71 47.3799 247.674 48.3433 247.674 49.5318C247.674 50.7202 246.71 51.6837 245.522 51.6837C244.334 51.6837 243.37 50.7202 243.37 49.5318C243.37 48.3433 244.334 47.3799 245.522 47.3799Z" fill="#E7F7FF"/>
<path fill-rule="evenodd" clip-rule="evenodd" d="M202.025 94.1103V93.6596C202.025 93.4822 202.01 93.3083 201.981 93.1391C200.919 92.5821 200.051 91.7058 199.504 90.6379C199.326 90.6056 199.142 90.5887 198.954 90.5887H198.024C196.562 90.5887 195.376 89.403 195.376 87.9404C195.376 86.4778 196.562 85.2922 198.024 85.2922H198.982C199.182 85.2922 199.378 85.2729 199.567 85.236C200.113 84.228 200.949 83.4 201.963 82.8635C202.003 82.6652 202.025 82.4598 202.025 82.2495V81.8269C202.025 80.3799 203.198 79.2068 204.645 79.2068C206.092 79.2068 207.265 80.3798 207.265 81.8269V82.2495C207.265 82.4481 207.284 82.6423 207.32 82.8303C208.367 83.3675 209.229 84.2134 209.786 85.2476C209.955 85.2769 210.13 85.2922 210.308 85.2922H211.209C212.672 85.2922 213.857 86.4778 213.857 87.9404C213.857 89.403 212.672 90.5887 211.209 90.5887H210.336C210.17 90.5887 210.007 90.6019 209.848 90.6272C209.291 91.7209 208.397 92.6144 207.303 93.1714C207.278 93.3304 207.265 93.4934 207.265 93.6595V94.1103C207.265 95.5574 206.092 96.7304 204.645 96.7304C203.198 96.7304 202.025 95.5574 202.025 94.1103ZM204.598 85.6631C205.787 85.6631 206.75 86.6265 206.75 87.815C206.75 89.0034 205.787 89.9669 204.598 89.9669C203.41 89.9669 202.446 89.0034 202.446 87.815C202.446 86.6265 203.41 85.6631 204.598 85.6631Z" fill="#E7F7FF"/>
<defs>
<linearGradient id="paint0_linear_96_12891" x1="270.575" y1="43.6449" x2="270.575" y2="2.46844" gradientUnits="userSpaceOnUse">
<stop stop-color="#F7FDFF"/>
<stop offset="1" stop-color="#E7F7FF"/>
</linearGradient>
<linearGradient id="paint1_linear_96_12891" x1="272.781" y1="58.8237" x2="272.781" y2="100" gradientUnits="userSpaceOnUse">
<stop stop-color="#F7FDFF"/>
<stop offset="1" stop-color="#E7F7FF"/>
</linearGradient>
<linearGradient id="paint2_linear_96_12891" x1="352.526" y1="42.4969" x2="352.526" y2="1.32043" gradientUnits="userSpaceOnUse">
<stop stop-color="#F7FDFF"/>
<stop offset="1" stop-color="#E7F7FF"/>
</linearGradient>
<linearGradient id="paint3_linear_96_12891" x1="352.526" y1="57.6757" x2="352.526" y2="98.8522" gradientUnits="userSpaceOnUse">
<stop stop-color="#F7FDFF"/>
<stop offset="1" stop-color="#E7F7FF"/>
</linearGradient>
<linearGradient id="paint4_linear_96_12891" x1="60.041" y1="56.3553" x2="60.041" y2="97.5317" gradientUnits="userSpaceOnUse">
<stop stop-color="#F7FDFF"/>
<stop offset="1" stop-color="#E7F7FF"/>
</linearGradient>
<linearGradient id="paint5_linear_96_12891" x1="62.2465" y1="41.1764" x2="62.2465" y2="0" gradientUnits="userSpaceOnUse">
<stop stop-color="#F7FDFF"/>
<stop offset="1" stop-color="#E7F7FF"/>
</linearGradient>
<linearGradient id="paint6_linear_96_12891" x1="141.992" y1="57.5032" x2="141.992" y2="98.6797" gradientUnits="userSpaceOnUse">
<stop stop-color="#F7FDFF"/>
<stop offset="1" stop-color="#E7F7FF"/>
</linearGradient>
<linearGradient id="paint7_linear_96_12891" x1="141.992" y1="42.3244" x2="141.992" y2="1.14795" gradientUnits="userSpaceOnUse">
<stop stop-color="#F7FDFF"/>
<stop offset="1" stop-color="#E7F7FF"/>
</linearGradient>
</defs>
</svg>
