<svg width="245" height="241" viewBox="0 0 245 241" fill="none" xmlns="http://www.w3.org/2000/svg">
<path d="M77.2928 73.1518L77.293 8.53132L120.34 53.0788L120.34 116.524L77.2928 73.1518Z" fill="#F0FBFF" fill-opacity="0.1"/>
<path d="M166.895 73.4568L166.895 8.83625L123.848 53.3837L123.848 116.829L166.895 73.4568Z" fill="#F0FBFF" fill-opacity="0.1"/>
<path d="M77.8111 167.848L77.8113 232.469L120.858 187.921L120.858 124.475L77.8111 167.848Z" fill="#F0FBFF" fill-opacity="0.1"/>
<path d="M166.44 167.543L166.439 232.164L123.393 187.616L123.393 124.171L166.44 167.543Z" fill="#F0FBFF" fill-opacity="0.1"/>
<path d="M73.1518 165.527L8.53132 165.527L53.0788 122.48L116.524 122.48L73.1518 165.527Z" fill="#F0FBFF" fill-opacity="0.1"/>
<path d="M75.3425 76.1685L10.722 76.1687L55.2694 119.215L118.715 119.215L75.3425 76.1685Z" fill="#F0FBFF" fill-opacity="0.1"/>
<path d="M171.195 165.77L235.815 165.77L191.268 122.723L127.822 122.723L171.195 165.77Z" fill="#F0FBFF" fill-opacity="0.1"/>
<path d="M171.376 75.6812L235.997 75.6814L191.449 118.728L128.003 118.728L171.376 75.6812Z" fill="#F0FBFF" fill-opacity="0.1"/>
<path fill-rule="evenodd" clip-rule="evenodd" d="M217.218 133.775V132.889C217.218 132.541 217.189 132.199 217.132 131.867C215.045 130.773 213.339 129.051 212.265 126.952C211.915 126.889 211.554 126.856 211.185 126.856H209.358C206.485 126.856 204.155 124.526 204.155 121.653C204.155 118.779 206.485 116.45 209.358 116.45H211.24C211.633 116.45 212.017 116.412 212.389 116.339C213.462 114.359 215.104 112.732 217.096 111.678C217.176 111.288 217.218 110.885 217.218 110.472V109.641C217.218 106.798 219.523 104.494 222.366 104.494C225.209 104.494 227.514 106.798 227.514 109.641V110.472C227.514 110.862 227.551 111.244 227.623 111.614C229.678 112.669 231.371 114.33 232.465 116.362C232.799 116.419 233.142 116.45 233.492 116.45H235.263C238.136 116.45 240.466 118.779 240.466 121.653C240.466 124.526 238.136 126.856 235.263 126.856H233.547C233.22 126.856 232.9 126.882 232.588 126.931C231.493 129.08 229.738 130.835 227.589 131.93C227.54 132.242 227.514 132.562 227.514 132.889V133.775C227.514 136.618 225.209 138.922 222.366 138.922C219.523 138.922 217.218 136.618 217.218 133.775ZM222.275 117.178C224.61 117.178 226.503 119.071 226.503 121.406C226.503 123.741 224.61 125.634 222.275 125.634C219.94 125.634 218.048 123.741 218.048 121.406C218.048 119.071 219.94 117.178 222.275 117.178Z" fill="#DEF6FF" fill-opacity="0.2"/>
<path fill-rule="evenodd" clip-rule="evenodd" d="M116.952 231.02V230.135C116.952 229.786 116.923 229.445 116.866 229.113C114.78 228.018 113.074 226.296 111.999 224.198C111.649 224.134 111.288 224.101 110.919 224.101H109.092C106.219 224.101 103.889 221.772 103.889 218.898C103.889 216.025 106.219 213.695 109.092 213.695H110.974C111.367 213.695 111.751 213.657 112.123 213.585C113.196 211.604 114.838 209.977 116.831 208.923C116.91 208.534 116.952 208.13 116.952 207.717V206.887C116.952 204.044 119.257 201.739 122.1 201.739C124.943 201.739 127.248 204.044 127.248 206.887V207.717C127.248 208.108 127.285 208.489 127.357 208.859C129.412 209.915 131.105 211.576 132.2 213.607C132.533 213.665 132.876 213.695 133.226 213.695H134.997C137.871 213.695 140.2 216.025 140.2 218.898C140.2 221.772 137.87 224.101 134.997 224.101H133.281C132.955 224.101 132.634 224.127 132.322 224.177C131.228 226.326 129.472 228.081 127.324 229.175C127.274 229.488 127.248 229.808 127.248 230.135V231.02C127.248 233.863 124.943 236.168 122.1 236.168C119.257 236.168 116.952 233.863 116.952 231.02ZM122.01 214.424C124.345 214.424 126.238 216.317 126.238 218.652C126.238 220.987 124.345 222.88 122.01 222.88C119.675 222.88 117.782 220.987 117.782 218.652C117.782 216.317 119.675 214.424 122.01 214.424Z" fill="#DEF6FF" fill-opacity="0.2"/>
<path fill-rule="evenodd" clip-rule="evenodd" d="M19.1025 133.775V132.889C19.1025 132.541 19.073 132.199 19.0163 131.867C16.9298 130.773 15.2239 129.051 14.1495 126.952C13.799 126.889 13.438 126.856 13.0692 126.856H11.2426C8.36903 126.856 6.03955 124.526 6.03955 121.653C6.03955 118.779 8.36903 116.45 11.2426 116.45H13.1245C13.5174 116.45 13.9015 116.412 14.2732 116.339C15.3462 114.359 16.9886 112.732 18.9808 111.678C19.0606 111.288 19.1025 110.885 19.1025 110.472V109.641C19.1025 106.798 21.4072 104.494 24.2502 104.494C27.0932 104.494 29.3979 106.798 29.3979 109.641V110.472C29.3979 110.862 29.4353 111.244 29.5068 111.613C31.5622 112.669 33.2553 114.33 34.35 116.362C34.6833 116.42 35.0261 116.45 35.3758 116.45H37.1471C40.0206 116.45 42.3501 118.779 42.3501 121.653C42.3501 124.526 40.0206 126.856 37.1471 126.856H35.4312C35.1048 126.856 34.7844 126.882 34.4721 126.931C33.3777 129.08 31.6222 130.835 29.4737 131.93C29.4238 132.242 29.3979 132.563 29.3979 132.889V133.775C29.3979 136.618 27.0932 138.922 24.2502 138.922C21.4072 138.922 19.1025 136.618 19.1025 133.775ZM24.1597 117.178C26.4947 117.178 28.3876 119.071 28.3876 121.406C28.3876 123.741 26.4947 125.634 24.1597 125.634C21.8247 125.634 19.9318 123.741 19.9318 121.406C19.9318 119.071 21.8247 117.178 24.1597 117.178Z" fill="#DEF6FF" fill-opacity="0.2"/>
<path fill-rule="evenodd" clip-rule="evenodd" d="M116.952 34.1129V33.2273C116.952 32.8791 116.923 32.5377 116.866 32.2056C114.78 31.1111 113.074 29.3892 111.999 27.2904C111.649 27.2271 111.288 27.194 110.919 27.194H109.092C106.219 27.194 103.889 24.8645 103.889 21.991C103.889 19.1174 106.219 16.7879 109.092 16.7879H110.974C111.367 16.7879 111.751 16.75 112.123 16.6777C113.196 14.6972 114.838 13.0702 116.831 12.0162C116.91 11.6266 116.952 11.2232 116.952 10.81V9.97969C116.952 7.1367 119.257 4.832 122.1 4.832C124.943 4.832 127.248 7.1367 127.248 9.97969V10.81C127.248 11.2005 127.285 11.5822 127.357 11.9518C129.412 13.0073 131.105 14.6687 132.2 16.7002C132.533 16.7579 132.876 16.7879 133.226 16.7879H134.997C137.871 16.7879 140.2 19.1174 140.2 21.991C140.2 24.8645 137.87 27.194 134.997 27.194H133.281C132.955 27.194 132.634 27.2199 132.322 27.2698C131.228 29.4183 129.472 31.1738 127.324 32.2682C127.274 32.5805 127.248 32.9009 127.248 33.2273V34.1129C127.248 36.9559 124.943 39.2606 122.1 39.2606C119.257 39.2606 116.952 36.9559 116.952 34.1129ZM122.01 17.5167C124.345 17.5167 126.238 19.4096 126.238 21.7446C126.238 24.0796 124.345 25.9725 122.01 25.9725C119.675 25.9725 117.782 24.0796 117.782 21.7446C117.782 19.4096 119.675 17.5167 122.01 17.5167Z" fill="#DEF6FF" fill-opacity="0.2"/>
</svg>
