<svg width="154" height="148" viewBox="0 0 154 148" fill="none" xmlns="http://www.w3.org/2000/svg">
<path d="M126.829 30.3362L125.609 25.7524L141.035 11.1739L126.829 30.3362Z" fill="#FE7938"/>
<path d="M128.863 37.9758L126.423 28.8082L141.066 10.6748L128.863 37.9758Z" fill="#FE9139"/>
<path d="M126.108 25.7832L112.88 20.9602L149.605 2.18402L143.613 34.3764L130.945 28.5861L140.505 11.6421L126.108 25.7832Z" fill="#FBBC43"/>
<path d="M127 11.0569L138 5.05695" stroke="#FBBC43" stroke-width="2" stroke-linecap="round"/>
<path d="M120 43.5569C101.095 40.6047 89.9448 62.6445 71.4999 57.5569C64.0748 55.5089 62.9426 53.0398 55.4999 51.057C31.8755 44.7632 14.4669 64.9326 10.4999 89.057C8.20715 103 9.49997 121.057 20.9999 125.057C29.6273 128.058 37.9505 123.63 53.4998 119.057C70.4998 114.057 78.0518 114.369 93.9999 121.057C109.5 127.557 122.544 136.863 135 130.057C142 126.232 147.67 119.878 150 110.557C153.5 96.5569 154.5 85.5569 150 72.057C144.801 56.4592 136.244 46.0938 120 43.5569Z" fill="#84CFF7" fill-opacity="0.35"/>
<path d="M113.173 35.3514C93.8014 32.1724 82.3755 55.9049 63.4749 50.4266C55.8664 48.2213 54.7063 45.5625 47.0797 43.4274C22.8718 36.6503 5.03316 58.3688 0.968233 84.3459C-1.3812 99.3601 -0.0564465 118.804 11.7275 123.111C20.568 126.342 29.0969 121.575 45.0303 116.65C62.4502 111.266 70.1887 111.602 86.5307 118.804C102.414 125.803 115.78 135.824 128.544 128.495C135.716 124.376 141.526 117.534 143.914 107.497C147.5 92.4219 148.525 80.5771 143.914 66.0403C138.586 49.2446 129.819 38.0831 113.173 35.3514Z" fill="#84CFF7" fill-opacity="0.35"/>
<path d="M70.5 147.057C103.361 147.057 130 144.371 130 141.057C130 137.743 103.361 135.057 70.5 135.057C37.6391 135.057 11 137.743 11 141.057C11 144.371 37.6391 147.057 70.5 147.057Z" fill="#DBE5ED"/>
<path d="M71 87.5569C71 87.5569 74.6513 73.7586 81.5 69.0569C88.4892 64.2589 98.0003 68.8632 106 66.0569C113.679 63.3631 115.522 55.2439 122.5 51.0569C127.5 48.0569 133.601 48.8288 137.5 51.0569C141 53.0569 142.5 56.0569 143 60.5569C143.5 65.0569 142.785 67.3812 140 70.5569C137.215 73.7327 134 75.5569 129.5 75.0569C124.806 74.5354 122.1 72.6199 119 69.0569C115.835 65.4186 114.277 62.8165 113.5 58.0569C112.902 54.3955 113.796 51.6994 114.5 48.0569C116.047 40.0569 124.5 32.0569 124.5 32.0569" stroke="#298F9F" stroke-dasharray="3 3"/>
<path d="M113.62 88.9598L28.6893 87.7389C27.9805 87.7286 27.3976 88.2948 27.3873 89.0036L26.6928 137.308C26.6825 138.016 27.2492 138.599 27.958 138.609L112.889 139.83C113.597 139.84 114.18 139.274 114.19 138.565L114.885 90.2614C114.895 89.5531 114.329 88.9702 113.62 88.9598Z" fill="#E9B93C"/>
<path opacity="0.24" d="M28.6894 87.7389C27.9807 87.7286 27.3977 88.2948 27.3874 89.0035L26.693 137.308C26.6826 138.016 27.2493 138.599 27.9581 138.609L67.7468 139.181L113.38 88.9559L28.6894 87.7389Z" fill="#DC8535"/>
<path opacity="0.58" d="M28.4389 87.7353L69.5101 126.733C70.1235 127.3 71.0653 127.313 71.6945 126.765L113.87 88.9634L28.4389 87.7353Z" fill="#DAA639"/>
<path d="M28.4389 87.7354L69.5256 125.667C70.139 126.233 71.0808 126.247 71.7101 125.698L113.87 88.964L28.4389 87.7354Z" fill="#EFC63D"/>
<path d="M113.127 138.671C112.959 138.922 107.413 135.496 100.741 131.021C94.068 126.545 88.7948 122.713 88.9629 122.462C89.1309 122.211 94.6768 125.637 101.35 130.113C108.022 134.589 113.295 138.42 113.127 138.671Z" fill="#DAA639"/>
<path opacity="0.27" d="M28.4796 137.454C28.6405 137.71 34.2823 134.445 41.0812 130.163C47.8801 125.88 53.2608 122.201 53.0998 121.946C52.9389 121.691 47.2971 124.955 40.4982 129.238C33.6998 133.52 28.3186 137.199 28.4796 137.454Z" fill="#DAA639"/>
<path d="M106.215 90.6306C106.21 90.9484 90.4496 90.9789 71.0124 90.6999C51.5751 90.4204 35.822 89.9364 35.8263 89.619C35.8311 89.3012 51.5915 89.2702 71.0287 89.5497C90.466 89.8292 106.219 90.3132 106.215 90.6306Z" fill="#F7E58A"/>
<path d="M58.8738 114.714C58.8738 114.714 68.7981 124.023 69.6225 124.63C70.447 125.237 71.1008 125.306 72.1258 124.368C73.1508 123.43 100.632 99.6026 100.632 99.6026C100.632 99.6026 73.9552 121.299 72.7576 121.818C71.5601 122.336 70.061 123.088 69.0608 122.3C68.0601 121.512 58.8738 114.714 58.8738 114.714Z" fill="#F7E58A"/>
<path d="M114.286 91.0762L90.7416 120.985L113.482 137.43L114.286 91.0762Z" fill="#EFC63D"/>
<path d="M88.2053 124.195L73.9853 138.393L111.144 138.927L88.2053 124.195Z" fill="#EFC63D"/>
<path d="M28.6243 93.3589L28.0104 136.079L35.0053 131.378L28.6243 93.3589Z" fill="#E9B93C"/>
<path d="M31.4879 137.5L35.6404 134.885L57.4107 137.667L31.4879 137.5Z" fill="#E9B93C"/>
<path d="M107.076 97.8295C113.258 97.8295 118.27 92.8179 118.27 86.6357C118.27 80.4536 113.258 75.442 107.076 75.442C100.894 75.442 95.882 80.4536 95.882 86.6357C95.882 92.8179 100.894 97.8295 107.076 97.8295Z" fill="#C30150"/>
<path d="M113.56 74.0569C116.405 75.5264 118.688 77.9331 120 80.8689" stroke="#C30150" stroke-width="2" stroke-miterlimit="10" stroke-linecap="round"/>
<path d="M93.0001 85.189C93.4863 80.4054 96.3557 76.326 100.402 74.157" stroke="#C30150" stroke-width="2" stroke-miterlimit="10" stroke-linecap="round"/>
<path d="M104.923 84.3361L104.923 82.4281L108.247 82.4281L108.247 91.1881L106.111 91.1881L106.111 84.3361L104.923 84.3361Z" fill="white"/>
<path d="M24.2471 66.5509C33.7724 66.5509 41.4941 58.8292 41.4941 49.3039C41.4941 39.7787 33.7724 32.0569 24.2471 32.0569C14.7219 32.0569 7.00012 39.7787 7.00012 49.3039C7.00012 58.8292 14.7219 66.5509 24.2471 66.5509Z" fill="#00A0D2"/>
<path d="M38.5 58.0569L21 63.5569C21 63.5569 37.9251 75.6946 34.5 70.5569C30.5 64.5569 38.5 58.0569 38.5 58.0569Z" fill="#00A0D2"/>
<path d="M29.4251 45.3599C29.7601 46.7249 30.7961 52.1319 34.1201 52.8069C32.2411 53.2679 27.5101 54.4299 25.7401 54.8649C23.9141 55.3129 18.8331 56.5609 17.2631 56.9469C19.7071 55.2879 18.3931 49.4579 18.0711 48.1479C17.3011 45.0129 19.219 41.8469 22.354 41.0769C25.489 40.3069 28.6551 42.2249 29.4251 45.3599Z" fill="white"/>
<path d="M23.348 40.9089C23.48 41.4479 23.151 41.9929 22.611 42.1249C22.072 42.2569 21.528 41.9279 21.395 41.3889C21.263 40.8499 21.592 40.3049 22.131 40.1729C22.671 40.0399 23.216 40.3699 23.348 40.9089Z" fill="white"/>
<path d="M27.962 55.3229C28.242 56.4649 27.544 57.6169 26.403 57.8979C25.261 58.1779 24.109 57.4799 23.828 56.3389C24.673 56.1309 27.007 55.5579 27.962 55.3229Z" fill="white"/>
<path d="M6.14746 57.7368C7.40967 62.3764 10.9078 65.9313 15.2546 67.4091" stroke="#00A0D2" stroke-width="2" stroke-miterlimit="10" stroke-linecap="round"/>
</svg>
